<?xml version="1.0" encoding="UTF-8" standalone="no"?>
<svg width="138px" height="108px" viewBox="0 0 138 108" version="1.1" xmlns="http://www.w3.org/2000/svg" xmlns:xlink="http://www.w3.org/1999/xlink">
    <!-- Generator: sketchtool 41 (35326) - http://www.bohemiancoding.com/sketch -->
    <title>76D88B0A-694C-4077-91F1-9D394548E394</title>
    <desc>Created with sketchtool.</desc>
    <defs>
        <rect id="path-1" x="2.71275759" y="3.36679028" width="90.5954198" height="76.5165563"></rect>
        <mask id="mask-2" maskContentUnits="userSpaceOnUse" maskUnits="objectBoundingBox" x="0" y="0" width="90.5954198" height="76.5165563" fill="white">
            <use xlink:href="#path-1"></use>
        </mask>
        <rect id="path-3" x="7.3740458" y="3.1589404" width="90.5954198" height="76.5165563"></rect>
        <mask id="mask-4" maskContentUnits="userSpaceOnUse" maskUnits="objectBoundingBox" x="0" y="0" width="90.5954198" height="76.5165563" fill="white">
            <use xlink:href="#path-3"></use>
        </mask>
        <rect id="path-5" x="12.2900763" y="8.42384106" width="30.1984733" height="31.9403974" rx="1.75"></rect>
        <mask id="mask-6" maskContentUnits="userSpaceOnUse" maskUnits="objectBoundingBox" x="0" y="0" width="30.1984733" height="31.9403974" fill="white">
            <use xlink:href="#path-5"></use>
        </mask>
    </defs>
    <g id="final-emails-/-responsive" stroke="none" stroke-width="1" fill="none" fill-rule="evenodd">
        <g id="Welcome-Email--Desktop-" transform="translate(-32.000000, -617.000000)">
            <g id="illustration-3" transform="translate(32.000000, 619.000000)">
                <g id="wind" transform="translate(0.000000, 44.576159)" fill="#D9E5FE">
                    <rect id="Rectangle-2-Copy-47" x="8.56694278" y="11.5827815" width="21.0687023" height="2.45695364" rx="1.22847682"></rect>
                    <rect id="Rectangle-2-Copy-65" x="17.6070597" y="5.26490066" width="50.8662227" height="2.45695364" rx="1.22847682"></rect>
                    <rect id="Rectangle-2-Copy-66" x="0" y="17.5496689" width="37.4803746" height="2.45695364" rx="1.22847682"></rect>
                    <rect id="Rectangle-2-Copy-67" x="21.4173569" y="23.1655629" width="24.0945266" height="2.45695364" rx="1.22847682"></rect>
                    <rect id="Rectangle-2-Copy-68" x="19.1012939" y="31.2384106" width="16.0630177" height="2.45695364" rx="1.22847682"></rect>
                    <rect id="Rectangle-2-Copy-69" x="31.3814087" y="38.2582781" width="16.0630177" height="2.45695364" rx="1.22847682"></rect>
                    <rect id="Rectangle-2-Copy-70" x="22.6127443" y="38.2582781" width="5.35433923" height="2.45695364" rx="1.22847682"></rect>
                    <rect id="Rectangle-2-Copy-71" x="0" y="11.5827815" width="5.35433923" height="2.45695364" rx="1.22847682"></rect>
                    <rect id="Rectangle-2-Copy-72" x="31.9541985" y="0" width="5.35433923" height="2.45695364" rx="1.22847682"></rect>
                </g>
                <g id="report" transform="translate(85.432575, 60.092628) rotate(-5.000000) translate(-85.432575, -60.092628) translate(36.447842, 18.499912)">
                    <use id="Rectangle-Copy-6" stroke="#979797" mask="url(#mask-2)" stroke-width="2.1" fill="#FFFFFF" transform="translate(48.010468, 41.625068) rotate(-4.000000) translate(-48.010468, -41.625068) " xlink:href="#path-1"></use>
                    <use id="Rectangle-8-Copy-3" stroke="#979797" mask="url(#mask-4)" stroke-width="2.1" fill="#FFFFFF" xlink:href="#path-3"></use>
                    <rect id="Rectangle-2-Copy-56" fill-opacity="0.376556839" fill="#D8D8D8" opacity="0.657182836" x="11.5877863" y="43.5231788" width="31.6030534" height="31.9403974" rx="1.75"></rect>
                    <rect id="Rectangle-2-Copy-55" fill-opacity="0.376556839" fill="#D8D8D8" opacity="0.657182836" x="47.4045802" y="7.37086093" width="45.648855" height="68.794702" rx="1.75"></rect>
                    <rect id="Rectangle-2-Copy-45" fill="#D8D8D8" x="52.6717557" y="21.6613056" width="28.0916031" height="3.09466798" rx="1.4"></rect>
                    <rect id="Rectangle-2-Copy-46" fill="#D8D8D8" x="52.6717557" y="45.5789972" width="35.1145038" height="3.09466798" rx="1.4"></rect>
                    <rect id="Rectangle-2-Copy-48" fill="#D8D8D8" x="52.6717557" y="29.6338694" width="35.1145038" height="3.09466798" rx="1.4"></rect>
                    <rect id="Rectangle-2-Copy-50" fill="#D8D8D8" x="52.6717557" y="53.551561" width="24.5801527" height="3.09466798" rx="1.4"></rect>
                    <rect id="Rectangle-2-Copy-57" fill="#D8D8D8" x="52.6717557" y="61.5241249" width="35.1145038" height="3.09466798" rx="1.4"></rect>
                    <rect id="Rectangle-2-Copy-58" fill="#D8D8D8" x="52.6717557" y="69.4966887" width="35.1145038" height="3.09466798" rx="1.4"></rect>
                    <rect id="Rectangle-2-Copy-51" fill="#D8D8D8" x="17.2061069" y="61.0728477" width="21.0687023" height="3.09466798" rx="1.4"></rect>
                    <rect id="Rectangle-2-Copy-52" fill="#B0B4BC" x="52.6717557" y="13.6887417" width="24.5801527" height="3.09466798" rx="1.4"></rect>
                    <rect id="Rectangle-2-Copy-53" fill="#B0B4BC" x="52.6717557" y="37.6064333" width="24.5801527" height="3.09466798" rx="1.4"></rect>
                    <path d="M31.5238904,21.2166801 C31.3079789,22.2443052 30.9105697,23.1564397 30.3861005,23.8737943 C30.3817364,24.1455941 30.3675313,24.39287 30.3548861,24.6311143 C30.3176937,25.3318466 30.2939962,25.9544479 30.573884,26.8931071 C30.5860498,26.9339076 30.5982497,26.9748198 30.6104821,27.0158386 C33.3902534,27.3491661 34.9162512,27.9334508 36.4632743,28.9503648 C37.4697024,29.6119262 39.3282443,37.7788846 39.3282443,37.7788846 L31.8119003,37.7788846 L24.6401371,37.7788846 L15.4503817,37.7788846 C15.4503817,37.7788846 17.3089236,29.6119262 18.3153517,28.9503648 C19.9370511,27.8843633 21.5356464,27.2937661 24.5795983,26.9693023 C24.5848556,26.9411924 24.5902101,26.9157578 24.5956638,26.8931071 C24.7936885,25.5652366 24.7533615,24.5706351 24.650604,23.8614551 C24.1367721,23.1545041 23.7458795,22.2599897 23.5295471,21.2530983 C22.870222,20.9747901 22.8612036,19.5479438 22.8612036,19.168068 C22.8612036,18.9238872 23.1188125,18.8513381 23.3589691,18.8367582 C23.5640932,15.7504067 25.3500278,13.3377483 27.5228497,13.3377483 C29.6969366,13.3377483 31.4836857,15.7532168 31.687087,18.8421495 C31.9065812,18.8657039 32.1201292,18.9457478 32.1201292,19.168068 C32.1201292,19.5335658 32.1117806,20.8682802 31.5238904,21.2166801 Z" id="Combined-Shape-Copy-2" fill="#D8D8D8"></path>
                    <use id="Rectangle-2-Copy-54" stroke="#D8D8D8" mask="url(#mask-6)" stroke-width="2.8" xlink:href="#path-5"></use>
                    <text id="760-copy-2" font-family="Montserrat-Bold, Montserrat" font-size="12.6" font-weight="bold" fill="#B0B5BC">
                        <tspan x="15.4503817" y="56.9271523">760</tspan>
                    </text>
                    <rect id="Rectangle-2-Copy-44" fill="#D8D8D8" x="17.2061069" y="68.794702" width="21.0687023" height="3.09466798" rx="1.4"></rect>
                </g>
                <g id="magnify" transform="translate(110.831154, 58.644806) rotate(5.000000) translate(-110.831154, -58.644806) translate(91.518177, 39.164673)">
                    <g id="Group-2" transform="translate(0.000000, -0.000000)">
                        <path d="M24.1798406,27.0440555 C23.767836,26.6322289 23.7670651,25.9652966 24.178975,25.5535645 L25.0852178,24.6477132 C25.4967443,24.2363644 26.1628189,24.2352231 26.5763528,24.6485783 L38.0086394,36.0759273 C38.420644,36.487754 38.4214149,37.1546862 38.009505,37.5664183 L37.1032622,38.4722697 C36.6917357,38.8836185 36.0256611,38.8847597 35.6121272,38.4714045 L24.1798406,27.0440555 Z" id="Rectangle-7" fill="#515050"></path>
                        <ellipse id="Oval-2-Copy-2" stroke="#515050" stroke-width="2.8" cx="14.4040153" cy="14.4458947" rx="14.4040153" ry="14.4458947"></ellipse>
                    </g>
                    <ellipse id="Oval-2-Copy-2" stroke="#515050" stroke-width="2.8" fill="#FFFFFF" opacity="0.647446362" cx="14.4040153" cy="14.4458947" rx="14.4040153" ry="14.4458947"></ellipse>
                    <path d="M7.58407089,7.58814776 C7.58407089,7.58814776 1.17651045,13.3556545 7.58407089,21.2649338" id="Path-2" stroke="#979797" stroke-width="2.45" stroke-linecap="round" stroke-linejoin="round" opacity="0.647446362"></path>
                </g>
                <polyline id="Path-6-Copy" stroke="#36D488" stroke-width="3.5" stroke-linecap="round" stroke-linejoin="round" points="74.4427481 7.77274893 79.9909607 14.4423256 93.7557252 0.0148312558"></polyline>
            </g>
        </g>
    </g>
</svg>