<?xml version="1.0" encoding="UTF-8" standalone="no"?>
<svg width="140px" height="82px" viewBox="0 0 140 82" version="1.1" xmlns="http://www.w3.org/2000/svg" xmlns:xlink="http://www.w3.org/1999/xlink">
    <!-- Generator: sketchtool 41 (35326) - http://www.bohemiancoding.com/sketch -->
    <title>772DFB63-4AE4-4AC7-B5AC-4DE61A84CE73</title>
    <desc>Created with sketchtool.</desc>
    <defs>
        <ellipse id="path-1" cx="38.7415161" cy="39" rx="38.7415161" ry="39"></ellipse>
    </defs>
    <g id="final-emails-/-responsive" stroke="none" stroke-width="1" fill="none" fill-rule="evenodd">
        <g id="Welcome-Email--Desktop-" transform="translate(-41.000000, -501.000000)">
            <g id="illustration-2" transform="translate(41.000000, 503.000000)">
                <g id="Layer_1">
                    <ellipse id="path-3" cx="99.4160597" cy="39" rx="38.7415161" ry="39"></ellipse>
                    <g id="illustrations">
                        <g id="Artboard-7">
                            <g id="Group-4">
                                <g id="Group-4-Copy" transform="translate(0.000000, 22.285714)">
                                    <g id="Rectangle-6-Copy-5" transform="translate(5.739484, 12.380952)" fill="#FFFFFF">
                                        <path d="M2.62663379,0.25752381 L103.260284,0.25752381 C104.607833,0.25752381 105.699565,1.35695238 105.699565,2.71307937 L105.699565,10.7912381 C105.699565,12.1473651 104.607833,13.2467937 103.260284,13.2467937 L2.62663379,13.2467937 C1.27949494,13.2467937 0.187353152,12.1473651 0.187353152,10.7912381 L0.187353152,2.71266667 C0.187353152,1.35653968 1.27949494,0.25752381 2.62663379,0.25752381 Z" id="Shape"></path>
                                    </g>
                                    <g id="Group">
                                        <g id="Rectangle-6" transform="translate(0.000000, 9.904762)" fill="#E6E6E6">
                                            <rect id="Rectangle-path" x="0.12175905" y="0.276095238" width="132.641522" height="41.3565079"></rect>
                                        </g>
                                        <g id="Rectangle-6-Copy-2" fill="#C8C8C8">
                                            <path d="M1.86410236,0 L131.020938,0 C131.983121,0 132.763281,0.785365079 132.763281,1.75396825 L132.763281,8.42688889 C132.763281,9.39549206 131.983121,10.1808571 131.020938,10.1808571 L1.86410236,10.1808571 C0.901918892,10.1808571 0.12175905,9.39549206 0.12175905,8.42688889 L0.12175905,1.75396825 C0.12175905,0.785365079 0.901918892,0 1.86410236,0 Z" id="Shape"></path>
                                        </g>
                                        <g id="Rectangle-6-Copy-3" transform="translate(0.000000, 30.126984)" fill="#FFFFFF">
                                            <rect id="Rectangle-path" x="0.0327970506" y="0.0643809524" width="132.641522" height="23.803619"></rect>
                                        </g>
                                        <g id="Rectangle-6-Copy" transform="translate(0.000000, 14.031746)" fill="#FFFFFF">
                                            <rect id="Rectangle-path" x="0.12175905" y="0.36152381" width="126.416642" height="12.9892698"></rect>
                                        </g>
                                    </g>
                                    <g id="Rectangle-5" opacity="0.602" transform="translate(81.172700, 16.095238)" fill="#D9EFFE">
                                        <path d="M0.755152091,0.0536507937 L39.453622,0.0536507937 C39.8385774,0.0536507937 40.1509693,0.367714286 40.1509693,0.755238095 L40.1509693,7.77771429 C40.1509693,8.1648254 39.8385774,8.47888889 39.453622,8.47888889 L0.755152091,8.47888889 C0.370196709,8.47888889 0.0582147649,8.1648254 0.0582147649,7.77771429 L0.0582147649,0.755238095 C0.0582147649,0.367714286 0.369786746,0.0536507937 0.755152091,0.0536507937 Z" id="Shape"></path>
                                    </g>
                                    <g id="Group" transform="translate(1.229889, 16.920635)" fill="#5B6D79">
                                        <polygon id="Shape" points="6.1527267 2.21949206 4.93144652 6.42901587 4.06150476 6.42901587 3.20017221 3.68457143 2.33883967 6.42901587 1.46930787 6.42901587 0.248027695 2.21949206 1.25981671 2.21949206 1.97889204 5.15790476 2.76479137 2.30368254 3.63473314 2.30368254 4.4124332 5.15790476 5.14011776 2.21949206 6.1527267 2.21949206"></polygon>
                                        <polygon id="Shape" points="7.57447884 6.42901587 6.53727212 6.42901587 6.53727212 5.33453968 7.57447884 5.33453968"></polygon>
                                        <path d="M10.8947703,2.15222222 L10.6942983,3.13733333 L10.3097529,3.13733333 C10.1424879,3.13733333 9.98916169,3.17695238 9.84977423,3.25536508 C9.71038676,3.33377778 9.6099458,3.43488889 9.54886129,3.55828571 L9.54886129,6.42901587 L8.51165456,6.42901587 L8.51165456,2.21949206 L9.4820373,2.21949206 L9.50704505,2.66561905 C9.83050596,2.32349206 10.2011126,2.15222222 10.619275,2.15222222 L10.8947703,2.15222222 L10.8947703,2.15222222 Z" id="Shape"></path>
                                        <path d="M14.8250868,4.55165079 L12.1156405,4.55165079 C12.1713955,4.91647619 12.3181623,5.19133333 12.5559409,5.37663492 C12.7937195,5.56152381 13.0634752,5.65438095 13.3656181,5.65438095 C13.4603195,5.65438095 13.5640402,5.64571429 13.6759601,5.62879365 C13.7878801,5.61228571 13.9010299,5.58834921 14.0158196,5.55739683 C14.1306093,5.52685714 14.2437591,5.49012698 14.355679,5.44761905 C14.467189,5.40552381 14.5680399,5.35930159 14.6578219,5.30895238 L14.7082473,6.19295238 C14.3011539,6.40673016 13.8358458,6.51279365 13.3115029,6.51279365 C12.943766,6.51279365 12.6186652,6.45666667 12.3374305,6.3444127 C12.0557858,6.23257143 11.8188272,6.07904762 11.6265544,5.88590476 C11.4342817,5.69193651 11.2891548,5.46206349 11.1915836,5.19546032 C11.0940123,4.92885714 11.0452267,4.64120635 11.0452267,4.33209524 C11.0452267,4.0291746 11.0911426,3.74565079 11.1829743,3.48193651 C11.275216,3.21780952 11.4072242,2.98669841 11.5802286,2.78695238 C11.7528231,2.58803175 11.9635441,2.43244444 12.2115718,2.31977778 C12.4595995,2.20752381 12.7400143,2.15139683 13.0519963,2.15139683 C13.3139627,2.15139683 13.5578908,2.19473016 13.7837805,2.28180952 C14.0096701,2.36888889 14.2044026,2.49228571 14.3692078,2.652 C14.533603,2.81212698 14.6619215,3.00444444 14.7537532,3.22853968 C14.845585,3.45304762 14.8915008,3.70273016 14.8915008,3.9775873 C14.8923208,4.13606349 14.8697728,4.32714286 14.8250868,4.55165079 Z M12.1406482,3.84428571 L13.8383055,3.84428571 C13.8383055,3.62555556 13.7768111,3.4315873 13.6534122,3.26361905 C13.5300133,3.0952381 13.3393804,3.01104762 13.0819236,3.01104762 C12.8244667,3.01104762 12.6170254,3.08698413 12.4600095,3.23844444 C12.3029936,3.38990476 12.1964032,3.59171429 12.1406482,3.84428571 Z" id="Shape"></path>
                                        <path d="M19.2916351,6.42901587 L18.2544284,6.42901587 L18.2544284,4.16453968 C18.2544284,3.77165079 18.1888343,3.48111111 18.0580561,3.29333333 C17.9272778,3.10514286 17.7165568,3.01104762 17.4267128,3.01104762 C17.1089914,3.01104762 16.846615,3.13155556 16.6408135,3.37298413 L16.6408135,6.42901587 L15.6036068,6.42901587 L15.6036068,2.21949206 L16.5739895,2.21949206 L16.590798,2.47206349 C16.8863814,2.25869841 17.1930339,2.15222222 17.5107553,2.15222222 C18.6980085,2.15222222 19.2920451,2.82285714 19.2920451,4.16453968 L19.2920451,6.42901587 L19.2916351,6.42901587 Z" id="Shape"></path>
                                        <path d="M22.3688184,5.65438095 L22.2769867,6.51320635 L21.5324936,6.51320635 C21.3484202,6.51320635 21.1868947,6.48390476 21.0475072,6.42488889 C20.9081198,6.36546032 20.7912803,6.28704762 20.6961688,6.1892381 C20.6014674,6.09101587 20.5301338,5.97422222 20.482988,5.83968254 C20.4354323,5.70473016 20.4120644,5.56152381 20.4120644,5.41006349 L20.4120644,3.07831746 L19.8180278,3.07831746 L19.9102695,2.21949206 L20.4120644,2.21949206 L20.4120644,1.29339683 L21.4488611,1.18403175 L21.4488611,2.21949206 L22.3688184,2.21949206 L22.3688184,3.07831746 L21.4488611,3.07831746 L21.4488611,4.98085714 C21.4488611,5.14387302 21.4546006,5.26974603 21.4656696,5.35971429 C21.4767386,5.44968254 21.5033862,5.51695238 21.5452025,5.56152381 C21.5870187,5.60650794 21.6497431,5.63333333 21.7333756,5.6415873 C21.817008,5.64984127 21.9342575,5.65396825 22.084714,5.65396825 L22.3688184,5.65396825 L22.3688184,5.65438095 Z" id="Shape"></path>
                                        <path d="M26.6340748,5.65438095 L26.5422431,6.51320635 L26.165897,6.51320635 C25.7141176,6.51320635 25.4021356,6.35019048 25.2291312,6.02457143 C24.9388773,6.35019048 24.5125156,6.51320635 23.9492263,6.51320635 C23.7766318,6.51320635 23.6163362,6.48390476 23.4683395,6.42488889 C23.3207528,6.36546032 23.1924343,6.28126984 23.0837941,6.17231746 C22.9751539,6.06253968 22.8898816,5.93088889 22.8287971,5.77653968 C22.7673026,5.62219048 22.7365553,5.44679365 22.7365553,5.25034921 C22.7365553,4.96434921 22.8201878,4.72580952 22.9874528,4.53514286 C23.1547177,4.34447619 23.3580595,4.19136508 23.5978879,4.07622222 C23.8373064,3.96149206 24.0927134,3.87853968 24.3628791,3.82777778 C24.6330448,3.77701587 24.8745131,3.74936508 25.086464,3.7435873 C25.075395,3.49142857 25.0139005,3.31314286 24.9023906,3.20914286 C24.7908806,3.10514286 24.6014776,3.05314286 24.3337717,3.05314286 C24.0045713,3.05314286 23.6228956,3.16003175 23.1879248,3.37298413 L23.096093,2.5224127 C23.6146964,2.27561905 24.1218208,2.15222222 24.6182861,2.15222222 C25.6272054,2.15222222 26.13187,2.71638095 26.13187,3.84469841 L26.13187,4.98126984 C26.13187,5.13273016 26.1359696,5.25365079 26.1441689,5.34320635 C26.1527781,5.4331746 26.1695866,5.50209524 26.1945944,5.54955556 C26.2196021,5.59742857 26.2573187,5.62714286 26.3073342,5.63787302 C26.3577597,5.64901587 26.4217139,5.65479365 26.4996069,5.65479365 L26.6340748,5.65479365 L26.6340748,5.65438095 Z M25.0950732,5.41006349 L25.0950732,4.45053968 C24.9331378,4.46168254 24.775712,4.48438095 24.6227957,4.51780952 C24.4690595,4.55165079 24.3341817,4.6007619 24.2169322,4.66514286 C24.0996828,4.72952381 24.0049813,4.80669841 23.9328278,4.89666667 C23.8602643,4.98663492 23.8241875,5.09063492 23.8241875,5.20825397 C23.8241875,5.54501587 24.0111307,5.71339683 24.3846071,5.71339683 C24.6465736,5.71339683 24.8831223,5.61269841 25.0950732,5.41006349 Z" id="Shape"></path>
                                        <path d="M29.2266817,6.51320635 C28.8532053,6.51320635 28.5268746,6.41787302 28.2480997,6.22720635 L28.2480997,8.46650794 L27.210893,8.46650794 L27.210893,2.21949206 L28.1140418,2.21949206 L28.1976742,2.46380952 C28.5043267,2.25622222 28.8470558,2.15222222 29.2262717,2.15222222 C29.5439932,2.15222222 29.8297375,2.20834921 30.0835046,2.32060317 C30.3372718,2.43285714 30.5520925,2.58720635 30.7275567,2.78365079 C30.9034309,2.98009524 31.0383088,3.21161905 31.1334202,3.47822222 C31.2281217,3.7448254 31.2756774,4.0295873 31.2756774,4.33250794 C31.2756774,4.63584127 31.2297616,4.91936508 31.1379298,5.18307937 C31.0456881,5.44720635 30.91327,5.67873016 30.7406756,5.87806349 C30.5676711,6.07698413 30.3532604,6.23298413 30.0966235,6.3452381 C29.8399865,6.45707937 29.5501426,6.51320635 29.2266817,6.51320635 Z M29.1557581,3.01104762 C28.8335271,3.01104762 28.5932887,3.12866667 28.4354529,3.36431746 C28.2772071,3.59996825 28.1980842,3.92311111 28.1980842,4.33250794 C28.1980842,4.74231746 28.2772071,5.06504762 28.4354529,5.30111111 C28.5936986,5.5367619 28.833937,5.65438095 29.1557581,5.65438095 C29.4886481,5.65438095 29.7469249,5.53511111 29.9301784,5.29657143 C30.113432,5.05844444 30.2048537,4.73695238 30.2048537,4.33250794 C30.2048537,3.92847619 30.113432,3.60739683 29.9301784,3.36885714 C29.7473349,3.13031746 29.4890581,3.01104762 29.1557581,3.01104762 Z" id="Shape"></path>
                                        <path d="M34.0101315,6.51320635 C33.6366551,6.51320635 33.3103245,6.41787302 33.0315495,6.22720635 L33.0315495,8.46650794 L31.9943428,8.46650794 L31.9943428,2.21949206 L32.8974916,2.21949206 L32.9811241,2.46380952 C33.2877765,2.25622222 33.6305057,2.15222222 34.0097216,2.15222222 C34.327443,2.15222222 34.6131873,2.20834921 34.8669545,2.32060317 C35.1207217,2.43285714 35.3355423,2.58720635 35.5110066,2.78365079 C35.6868807,2.98009524 35.8217586,3.21161905 35.9168701,3.47822222 C36.0115715,3.7448254 36.0591273,4.0295873 36.0591273,4.33250794 C36.0591273,4.63584127 36.0132114,4.91936508 35.9213797,5.18307937 C35.829138,5.44720635 35.6967199,5.67873016 35.5241254,5.87806349 C35.3511209,6.07698413 35.1367102,6.23298413 34.8800733,6.3452381 C34.6238463,6.45707937 34.3335924,6.51320635 34.0101315,6.51320635 Z M33.9396179,3.01104762 C33.6173869,3.01104762 33.3771485,3.12866667 33.2193127,3.36431746 C33.0610669,3.59996825 32.981944,3.92311111 32.981944,4.33250794 C32.981944,4.74231746 33.0610669,5.06504762 33.2193127,5.30111111 C33.3775584,5.5367619 33.6177968,5.65438095 33.9396179,5.65438095 C34.2725079,5.65438095 34.5307847,5.53511111 34.7140382,5.29657143 C34.8972918,5.05844444 34.9887135,4.73695238 34.9887135,4.33250794 C34.9887135,3.92847619 34.8972918,3.60739683 34.7140382,3.36885714 C34.5307847,3.13031746 34.2725079,3.01104762 33.9396179,3.01104762 Z" id="Shape"></path>
                                        <path d="M38.3172042,5.65438095 L38.2249625,6.51320635 L37.8486163,6.51320635 C37.4915385,6.51320635 37.2242425,6.41085714 37.0459085,6.20574603 C36.8671646,6.00104762 36.7782026,5.73568254 36.7782026,5.41006349 L36.7782026,0.114730159 L37.8154093,0.114730159 L37.8154093,4.98085714 C37.8154093,5.14387302 37.819509,5.26974603 37.8277082,5.35971429 C37.8363175,5.44968254 37.8572256,5.51530159 37.8904326,5.55739683 C37.9240496,5.59949206 37.9740651,5.62631746 38.0408891,5.63704762 C38.108123,5.64901587 38.2003647,5.65438095 38.3172042,5.65438095 Z" id="Shape"></path>
                                        <path d="M40.0148615,1.57980952 L38.9776548,1.57980952 L38.9776548,0.53568254 L40.0148615,0.53568254 L40.0148615,1.57980952 Z M40.0148615,6.42901587 L38.9776548,6.42901587 L38.9776548,2.21949206 L40.0148615,2.21949206 L40.0148615,6.42901587 Z" id="Shape"></path>
                                        <path d="M42.7661241,6.51320635 C42.4426632,6.51320635 42.155689,6.45707937 41.9047916,6.3448254 C41.6538941,6.23298413 41.4419432,6.07946032 41.2693487,5.88631746 C41.0963443,5.69234921 40.9639262,5.46247619 40.8720945,5.19587302 C40.7802627,4.92926984 40.7343468,4.64161905 40.7343468,4.33250794 C40.7343468,4.02422222 40.7802627,3.73822222 40.8720945,3.47409524 C40.9643362,3.20996825 41.0963443,2.98009524 41.2693487,2.78365079 C41.4419432,2.58679365 41.6538941,2.43285714 41.9047916,2.32060317 C42.155689,2.20834921 42.4426632,2.15222222 42.7661241,2.15222222 C43.278988,2.15222222 43.6971504,2.25622222 44.0206113,2.46380952 L43.9287796,3.35606349 C43.5844105,3.12577778 43.2261028,3.01104762 42.8538562,3.01104762 C42.5205562,3.01104762 42.2622794,3.13031746 42.0790259,3.36885714 C41.8957724,3.60739683 41.8043506,3.92847619 41.8043506,4.33250794 C41.8043506,4.73653968 41.8957724,5.05844444 42.0790259,5.29657143 C42.2622794,5.53511111 42.5205562,5.65438095 42.8538562,5.65438095 C43.2261028,5.65438095 43.5844105,5.53965079 43.9287796,5.30936508 L44.0206113,6.20161905 C43.6971504,6.40920635 43.278988,6.51320635 42.7661241,6.51320635 Z" id="Shape"></path>
                                        <path d="M48.3194847,5.65438095 L48.227653,6.51320635 L47.8513068,6.51320635 C47.3995275,6.51320635 47.0875455,6.35019048 46.9145411,6.02457143 C46.6242872,6.35019048 46.1979255,6.51320635 45.6346362,6.51320635 C45.4620417,6.51320635 45.3017461,6.48390476 45.1537494,6.42488889 C45.0061627,6.36546032 44.8778442,6.28126984 44.769204,6.17231746 C44.6605638,6.06253968 44.5752914,5.93088889 44.5142069,5.77653968 C44.4527125,5.62219048 44.4219652,5.44679365 44.4219652,5.25034921 C44.4219652,4.96434921 44.5055977,4.72580952 44.6728627,4.53514286 C44.8401276,4.34447619 45.0434693,4.19136508 45.2832978,4.07622222 C45.5227162,3.96149206 45.7781233,3.87853968 46.048289,3.82777778 C46.3184547,3.77701587 46.559923,3.74936508 46.7718739,3.7435873 C46.7608049,3.49142857 46.6993104,3.31314286 46.5878004,3.20914286 C46.4762905,3.10514286 46.2868875,3.05314286 46.0191816,3.05314286 C45.6899812,3.05314286 45.3083055,3.16003175 44.8733346,3.37298413 L44.7815029,2.5224127 C45.3001062,2.27561905 45.8072306,2.15222222 46.303696,2.15222222 C47.3126153,2.15222222 47.8172799,2.71638095 47.8172799,3.84469841 L47.8172799,4.98126984 C47.8172799,5.13273016 47.8213795,5.25365079 47.8295788,5.34320635 C47.838188,5.4331746 47.8549965,5.50209524 47.8800042,5.54955556 C47.905012,5.59742857 47.9427286,5.62714286 47.9927441,5.63787302 C48.0431696,5.64901587 48.1071238,5.65479365 48.1850168,5.65479365 L48.3194847,5.65479365 L48.3194847,5.65438095 Z M46.7804831,5.41006349 L46.7804831,4.45053968 C46.6185477,4.46168254 46.4611218,4.48438095 46.3082056,4.51780952 C46.1544694,4.55165079 46.0195915,4.6007619 45.9023421,4.66514286 C45.7850926,4.72952381 45.6903912,4.80669841 45.6182376,4.89666667 C45.5456742,4.98663492 45.5095974,5.09063492 45.5095974,5.20825397 C45.5095974,5.54501587 45.6965406,5.71339683 46.070017,5.71339683 C46.3319835,5.71339683 46.5685322,5.61269841 46.7804831,5.41006349 Z" id="Shape"></path>
                                        <path d="M51.029341,5.65438095 L50.9375093,6.51320635 L50.1930162,6.51320635 C50.0089428,6.51320635 49.8474173,6.48390476 49.7080299,6.42488889 C49.5686424,6.36546032 49.4518029,6.28704762 49.3566914,6.1892381 C49.26199,6.09101587 49.1906564,5.97422222 49.1435106,5.83968254 C49.0959549,5.70473016 49.072587,5.56152381 49.072587,5.41006349 L49.072587,3.07831746 L48.4785504,3.07831746 L48.5707921,2.21949206 L49.072587,2.21949206 L49.072587,1.29339683 L50.1093838,1.18403175 L50.1093838,2.21949206 L51.029341,2.21949206 L51.029341,3.07831746 L50.1093838,3.07831746 L50.1093838,4.98085714 C50.1093838,5.14387302 50.1151232,5.26974603 50.1261922,5.35971429 C50.1372613,5.44968254 50.1639089,5.51695238 50.2057251,5.56152381 C50.2475413,5.60650794 50.3102657,5.63333333 50.3938982,5.6415873 C50.4775307,5.64984127 50.5947801,5.65396825 50.7452366,5.65396825 L51.029341,5.65396825 L51.029341,5.65438095 Z" id="Shape"></path>
                                        <path d="M52.7433969,1.57980952 L51.7061902,1.57980952 L51.7061902,0.53568254 L52.7433969,0.53568254 L52.7433969,1.57980952 Z M52.7433969,6.42901587 L51.7061902,6.42901587 L51.7061902,2.21949206 L52.7433969,2.21949206 L52.7433969,6.42901587 Z" id="Shape"></path>
                                        <path d="M57.1172936,5.88177778 C56.7380777,6.30314286 56.2252138,6.51320635 55.5787019,6.51320635 C55.255241,6.51320635 54.9637572,6.45707937 54.7046605,6.3448254 C54.4455638,6.23298413 54.2237738,6.07822222 54.0397003,5.88177778 C53.8556269,5.68533333 53.7133697,5.45546032 53.6129287,5.19133333 C53.5124877,4.92761905 53.4624722,4.64161905 53.4624722,4.33250794 C53.4624722,4.0295873 53.5124877,3.7448254 53.6129287,3.47822222 C53.7133697,3.21161905 53.8552169,2.98009524 54.0397003,2.78365079 C54.2237738,2.58679365 54.4451539,2.43285714 54.7046605,2.32060317 C54.9641672,2.20834921 55.255241,2.15222222 55.5787019,2.15222222 C55.9021628,2.15222222 56.1944665,2.21 56.4568429,2.32473016 C56.7188094,2.43987302 56.9418293,2.59546032 57.1259028,2.79231746 C57.3099762,2.9887619 57.4505936,3.21863492 57.5481648,3.4827619 C57.645736,3.74647619 57.6945216,4.0295873 57.6945216,4.33292063 C57.6945216,4.94453968 57.5022489,5.4608254 57.1172936,5.88177778 Z M56.3420533,3.37298413 C56.1596197,3.13155556 55.9050326,3.01104762 55.5787019,3.01104762 C55.2466318,3.01104762 54.9891749,3.13155556 54.8071513,3.37298413 C54.6247177,3.6144127 54.5337059,3.93425397 54.5337059,4.33250794 C54.5337059,4.7311746 54.6247177,5.05101587 54.8071513,5.29244444 C54.9895849,5.53387302 55.2470417,5.65438095 55.5787019,5.65438095 C55.9103621,5.65438095 56.1678189,5.53098413 56.3502525,5.28419048 C56.5326861,5.03698413 56.6236979,4.72003175 56.6236979,4.33250794 C56.6241079,3.93425397 56.5298164,3.6144127 56.3420533,3.37298413 Z" id="Shape"></path>
                                        <path d="M62.1020353,6.42901587 L61.0648286,6.42901587 L61.0648286,4.16453968 C61.0648286,3.77165079 60.9992345,3.48111111 60.8684562,3.29333333 C60.737678,3.10514286 60.5269569,3.01104762 60.237113,3.01104762 C59.9193916,3.01104762 59.6570152,3.13155556 59.4512137,3.37298413 L59.4512137,6.42901587 L58.4140069,6.42901587 L58.4140069,2.21949206 L59.3843897,2.21949206 L59.4011982,2.47206349 C59.6967816,2.25869841 60.003434,2.15222222 60.3211554,2.15222222 C61.5084087,2.15222222 62.1024452,2.82285714 62.1024452,4.16453968 L62.1024452,6.42901587 L62.1020353,6.42901587 Z" id="Shape"></path>
                                        <polygon id="Shape" points="64.0337816 6.42901587 62.9965748 6.42901587 62.9965748 5.33453968 64.0337816 5.33453968"></polygon>
                                        <path d="M68.6585757,6.42901587 L67.6217789,6.42901587 L67.6217789,4.16453968 C67.6217789,3.77165079 67.5561848,3.48111111 67.4254066,3.29333333 C67.2946283,3.10514286 67.0839073,3.01104762 66.7940633,3.01104762 C66.4763419,3.01104762 66.2139655,3.13155556 66.008164,3.37298413 L66.008164,6.42901587 L64.9709573,6.42901587 L64.9709573,2.21949206 L65.94134,2.21949206 L65.9581485,2.47206349 C66.2537319,2.25869841 66.5603844,2.15222222 66.8781058,2.15222222 C68.065359,2.15222222 68.6593956,2.82285714 68.6593956,4.16453968 L68.6593956,6.42901587 L68.6585757,6.42901587 Z" id="Shape"></path>
                                        <path d="M73.1161048,4.55165079 L70.4066585,4.55165079 C70.4628234,4.91647619 70.6091803,5.19133333 70.8469589,5.37663492 C71.0847375,5.56152381 71.3544932,5.65438095 71.6566361,5.65438095 C71.7517475,5.65438095 71.8550582,5.64571429 71.9673881,5.62879365 C72.0788981,5.61228571 72.1924579,5.58834921 72.3068376,5.55739683 C72.4216273,5.52685714 72.5351871,5.49012698 72.647107,5.44761905 C72.758207,5.40552381 72.8594679,5.35930159 72.9488399,5.30895238 L72.9992653,6.19295238 C72.5921719,6.40673016 72.1264538,6.51279365 71.6025209,6.51279365 C71.234784,6.51279365 70.9096832,6.45666667 70.6284485,6.3444127 C70.3463939,6.23257143 70.1094352,6.07904762 69.9175724,5.88590476 C69.7252997,5.69193651 69.5801728,5.46206349 69.4826016,5.19546032 C69.3850303,4.92885714 69.3362447,4.64120635 69.3362447,4.33209524 C69.3362447,4.0291746 69.3821606,3.74565079 69.4739923,3.48193651 C69.566234,3.21780952 69.6986521,2.98669841 69.8716566,2.78695238 C70.0442511,2.58803175 70.2549721,2.43244444 70.5029998,2.31977778 C70.7510275,2.20711111 71.0314423,2.15139683 71.3438342,2.15139683 C71.6058006,2.15139683 71.8493187,2.19473016 72.0756184,2.28180952 C72.3015081,2.36888889 72.4958306,2.49228571 72.6610457,2.652 C72.825031,2.81212698 72.9533494,3.00444444 73.0455912,3.22853968 C73.1378329,3.45263492 73.1837487,3.70273016 73.1837487,3.9775873 C73.1829288,4.13606349 73.1603808,4.32714286 73.1161048,4.55165079 Z M70.4312563,3.84428571 L72.1293236,3.84428571 C72.1293236,3.62555556 72.0678291,3.4315873 71.9444302,3.26361905 C71.8210313,3.0952381 71.6303984,3.01104762 71.3729416,3.01104762 C71.1150748,3.01104762 70.9076334,3.08698413 70.7506175,3.23844444 C70.5936017,3.38990476 70.4874212,3.59171429 70.4312563,3.84428571 Z" id="Shape"></path>
                                        <path d="M76.0932571,5.65438095 L76.0014253,6.51320635 L75.2569323,6.51320635 C75.0728588,6.51320635 74.9109234,6.48390476 74.7715359,6.42488889 C74.6321485,6.36546032 74.515309,6.28704762 74.4206075,6.1892381 C74.325906,6.09101587 74.2545724,5.97422222 74.2070167,5.83968254 C74.1598709,5.70473016 74.1360931,5.56152381 74.1360931,5.41006349 L74.1360931,3.07831746 L73.5424665,3.07831746 L73.6347082,2.21949206 L74.136503,2.21949206 L74.136503,1.29339683 L75.1732998,1.18403175 L75.1732998,2.21949206 L76.0932571,2.21949206 L76.0932571,3.07831746 L75.1732998,3.07831746 L75.1732998,4.98085714 C75.1732998,5.14387302 75.1790393,5.26974603 75.1901083,5.35971429 C75.2007673,5.44968254 75.2278249,5.51695238 75.2696411,5.56152381 C75.3114574,5.60650794 75.3737718,5.63333333 75.4578142,5.6415873 C75.5410367,5.65025397 75.6582862,5.65396825 75.8087427,5.65396825 L76.0932571,5.65396825 L76.0932571,5.65438095 Z" id="Shape"></path>
                                        <polygon id="Shape" points="80.6176102 0.53568254 77.5650247 7.14463492 76.4445955 7.14463492 79.496771 0.535269841 80.6176102 0.535269841"></polygon>
                                    </g>
                                    <g id="Group" transform="translate(81.992627, 16.920635)" fill="#4A90E2">
                                        <path d="M4.00820955,5.65438095 L3.91596784,6.51320635 L3.53962169,6.51320635 C3.08784232,6.51320635 2.77586037,6.35019048 2.60326589,6.02457143 C2.313012,6.35019048 1.88665034,6.51320635 1.32336099,6.51320635 C1.15076651,6.51320635 0.990470929,6.48390476 0.842884201,6.42488889 C0.69488751,6.36546032 0.56656905,6.28126984 0.457928819,6.17231746 C0.349288589,6.06253968 0.264016258,5.93088889 0.203341714,5.77653968 C0.141847244,5.62219048 0.111100009,5.44679365 0.111100009,5.25034921 C0.111100009,4.96434921 0.194322525,4.72580952 0.361587483,4.53514286 C0.528852441,4.34447619 0.732194155,4.19136508 0.972432551,4.07622222 C1.21185102,3.96149206 1.46684809,3.87853968 1.73701379,3.82777778 C2.00758946,3.77742857 2.24864778,3.74936508 2.46100869,3.7435873 C2.44993968,3.49142857 2.38803525,3.31314286 2.27693524,3.20914286 C2.16583523,3.10514286 1.9760223,3.05314286 1.70831637,3.05314286 C1.37911598,3.05314286 0.997440302,3.16003175 0.562469418,3.37298413 L0.470227713,2.5224127 C0.988831076,2.27561905 1.49595547,2.15222222 1.99242083,2.15222222 C3.0013401,2.15222222 3.50600471,2.71638095 3.50600471,3.84469841 L3.50600471,4.98126984 C3.50600471,5.13273016 3.51051431,5.25365079 3.51830361,5.34320635 C3.52691283,5.4331746 3.54372132,5.50209524 3.56872907,5.54955556 C3.59373682,5.59742857 3.63104347,5.62714286 3.68146893,5.63787302 C3.73148443,5.64901587 3.79543868,5.65479365 3.87374164,5.65479365 L4.00820955,5.65479365 L4.00820955,5.65438095 Z M2.46920795,5.41006349 L2.46920795,4.45053968 C2.30727251,4.46168254 2.15025663,4.48438095 1.99693042,4.51780952 C1.84360421,4.55165079 1.70872634,4.6007619 1.59147688,4.66514286 C1.47422743,4.72952381 1.37952594,4.80669841 1.30737243,4.89666667 C1.23521892,4.98663492 1.1987322,5.09063492 1.1987322,5.20825397 C1.1987322,5.54501587 1.38526543,5.71339683 1.75874184,5.71339683 C2.02111824,5.71339683 2.25766697,5.61269841 2.46920795,5.41006349 Z" id="Shape"></path>
                                        <path d="M6.59220718,6.51320635 C6.21914072,6.51320635 5.87600158,6.40673016 5.56360968,6.19336508 L5.54721115,6.42901587 L4.57682841,6.42901587 L4.57682841,0.114730159 L5.61362518,0.114730159 L5.61362518,2.42955556 C5.88666062,2.24466667 6.21340124,2.15180952 6.59220718,2.15180952 C6.9099286,2.15180952 7.19608287,2.20793651 7.44985005,2.32019048 C7.70361723,2.43244444 7.91843791,2.58679365 8.09349217,2.7832381 C8.26936635,2.97968254 8.40424422,3.21120635 8.49935567,3.47780952 C8.59364719,3.7444127 8.64120291,4.0291746 8.64120291,4.33209524 C8.64120291,4.63542857 8.59569701,4.91895238 8.5034553,5.18266667 C8.4112136,5.44679365 8.2787955,5.67831746 8.10620103,5.87765079 C7.93319658,6.07657143 7.71878586,6.23257143 7.46214894,6.3448254 C7.20551202,6.45707937 6.91566809,6.51320635 6.59220718,6.51320635 Z M6.52169352,3.01104762 C6.19946249,3.01104762 5.9592241,3.12866667 5.80097833,3.36431746 C5.6423226,3.59996825 5.56360968,3.92311111 5.56360968,4.33250794 C5.56360968,4.74231746 5.6423226,5.06504762 5.80097833,5.30111111 C5.9592241,5.5367619 6.19946249,5.65438095 6.52169352,5.65438095 C6.85458358,5.65438095 7.11245039,5.53511111 7.29611387,5.29657143 C7.4793674,5.05844444 7.57078917,4.73695238 7.57078917,4.33250794 C7.57078917,3.92847619 7.4793674,3.60739683 7.29611387,3.36885714 C7.11286035,3.13031746 6.85499354,3.01104762 6.52169352,3.01104762 Z" id="Shape"></path>
                                        <path d="M11.141978,6.51320635 C10.8185171,6.51320635 10.5319529,6.45707937 10.2806455,6.3448254 C10.029748,6.23298413 9.8177971,6.07946032 9.64520263,5.88631746 C9.47219818,5.69234921 9.33978009,5.46247619 9.24753839,5.19587302 C9.15570665,4.92926984 9.10938081,4.64161905 9.10938081,4.33250794 C9.10938081,4.02422222 9.15570665,3.73822222 9.24753839,3.47409524 C9.33978009,3.20996825 9.47219818,2.98009524 9.64520263,2.78365079 C9.8177971,2.58679365 10.029748,2.43285714 10.2806455,2.32060317 C10.5315429,2.20834921 10.8185171,2.15222222 11.141978,2.15222222 C11.6552519,2.15222222 12.0730043,2.25622222 12.3968752,2.46380952 L12.3050434,3.35606349 C11.9606744,3.12577778 11.6023666,3.01104762 11.2301201,3.01104762 C10.89723,3.01104762 10.6385433,3.13031746 10.4552898,3.36885714 C10.2720363,3.60739683 10.1802045,3.92847619 10.1802045,4.33250794 C10.1802045,4.73653968 10.2720363,5.05844444 10.4552898,5.29657143 C10.6381333,5.53511111 10.8968201,5.65438095 11.2301201,5.65438095 C11.6023666,5.65438095 11.9606744,5.53965079 12.3050434,5.30936508 L12.3968752,6.20161905 C12.0730043,6.40920635 11.6552519,6.51320635 11.141978,6.51320635 Z" id="Shape"></path>
                                        <polygon id="Shape" points="17.2975745 7.52349206 12.6137457 7.52349206 12.6137457 6.73193651 17.2975745 6.73193651"></polygon>
                                        <path d="M20.1578872,2.15222222 L19.9570053,3.13733333 L19.5724599,3.13733333 C19.4051949,3.13733333 19.2514588,3.17695238 19.1120713,3.25536508 C18.9726838,3.33377778 18.8726528,3.43488889 18.8111583,3.55828571 L18.8111583,6.42901587 L17.7743616,6.42901587 L17.7743616,2.21949206 L18.7447443,2.21949206 L18.7697521,2.66561905 C19.093213,2.32349206 19.4638197,2.15222222 19.8819821,2.15222222 L20.1578872,2.15222222 L20.1578872,2.15222222 Z" id="Shape"></path>
                                        <path d="M24.0886138,4.55165079 L21.3791674,4.55165079 C21.4353324,4.91647619 21.5816892,5.19133333 21.8194678,5.37663492 C22.0572464,5.56152381 22.3270022,5.65438095 22.629145,5.65438095 C22.7242565,5.65438095 22.8275672,5.64571429 22.9398971,5.62879365 C23.051407,5.61228571 23.1649668,5.58834921 23.2793465,5.55739683 C23.3941362,5.52685714 23.507696,5.49012698 23.6196159,5.44761905 C23.7307159,5.40552381 23.8319768,5.35930159 23.9213488,5.30895238 L23.9717743,6.19295238 C23.5646809,6.40673016 23.0989628,6.51279365 22.5750299,6.51279365 C22.2072929,6.51279365 21.8821922,6.45666667 21.6009575,6.3444127 C21.3189028,6.23257143 21.0819441,6.07904762 20.8900814,5.88590476 C20.6978087,5.69193651 20.5526817,5.46206349 20.4551105,5.19546032 C20.3575393,4.92885714 20.3087537,4.64120635 20.3087537,4.33209524 C20.3087537,4.0291746 20.3546695,3.74565079 20.4465013,3.48193651 C20.538743,3.21780952 20.6711611,2.98669841 20.8441655,2.78695238 C21.01676,2.58803175 21.2274811,2.43244444 21.4755087,2.31977778 C21.7235364,2.20711111 22.0039512,2.15139683 22.3163431,2.15139683 C22.5783096,2.15139683 22.8218277,2.19473016 23.0481273,2.28180952 C23.274017,2.36888889 23.4683395,2.49228571 23.6335547,2.652 C23.7975399,2.81212698 23.9258584,3.00444444 24.0181001,3.22853968 C24.1103418,3.45263492 24.1562577,3.70273016 24.1562577,3.9775873 C24.1554377,4.13606349 24.1328898,4.32714286 24.0886138,4.55165079 Z M21.4037652,3.84428571 L23.1018325,3.84428571 C23.1018325,3.62555556 23.040338,3.4315873 22.9169391,3.26361905 C22.7935402,3.0952381 22.6029074,3.01104762 22.3454505,3.01104762 C22.0875837,3.01104762 21.8801424,3.08698413 21.7231265,3.23844444 C21.5661106,3.38990476 21.4599302,3.59171429 21.4037652,3.84428571 Z" id="Shape"></path>
                                        <path d="M28.4539012,5.65438095 L28.3616595,6.51320635 L27.9853133,6.51320635 C27.533534,6.51320635 27.221552,6.35019048 27.0489575,6.02457143 C26.7587036,6.35019048 26.332342,6.51320635 25.7690526,6.51320635 C25.5964582,6.51320635 25.4361626,6.48390476 25.2885758,6.42488889 C25.1405792,6.36546032 25.0122607,6.28126984 24.9036205,6.17231746 C24.7949802,6.06253968 24.7097079,5.93088889 24.6490334,5.77653968 C24.5875389,5.62219048 24.5567917,5.44679365 24.5567917,5.25034921 C24.5567917,4.96434921 24.6400142,4.72580952 24.8072791,4.53514286 C24.9745441,4.34447619 25.1778858,4.19136508 25.4181242,4.07622222 C25.6575427,3.96149206 25.9125397,3.87853968 26.1827054,3.82777778 C26.4532811,3.77742857 26.6943394,3.74936508 26.9067003,3.7435873 C26.8956313,3.49142857 26.8337269,3.31314286 26.7226269,3.20914286 C26.6115269,3.10514286 26.4217139,3.05314286 26.154008,3.05314286 C25.8248076,3.05314286 25.4431319,3.16003175 25.0081611,3.37298413 L24.9159194,2.5224127 C25.4345227,2.27561905 25.9416471,2.15222222 26.4381125,2.15222222 C27.4470317,2.15222222 27.9516964,2.71638095 27.9516964,3.84469841 L27.9516964,4.98126984 C27.9516964,5.13273016 27.956206,5.25365079 27.9639953,5.34320635 C27.9726045,5.4331746 27.989413,5.50209524 28.0144207,5.54955556 C28.0394285,5.59742857 28.0767351,5.62714286 28.1271606,5.63787302 C28.1771761,5.64901587 28.2411303,5.65479365 28.3194333,5.65479365 L28.4539012,5.65479365 L28.4539012,5.65438095 Z M26.9148996,5.41006349 L26.9148996,4.45053968 C26.7529642,4.46168254 26.5959483,4.48438095 26.4426221,4.51780952 C26.2892959,4.55165079 26.154418,4.6007619 26.0371685,4.66514286 C25.9199191,4.72952381 25.8252176,4.80669841 25.7530641,4.89666667 C25.6809106,4.98663492 25.6444238,5.09063492 25.6444238,5.20825397 C25.6444238,5.54501587 25.8309571,5.71339683 26.2044335,5.71339683 C26.4668099,5.71339683 26.7033586,5.61269841 26.9148996,5.41006349 Z" id="Shape"></path>
                                        <path d="M30.5701309,5.65438095 L30.4778892,6.51320635 L30.101543,6.51320635 C29.7444651,6.51320635 29.4771692,6.41085714 29.2984252,6.20574603 C29.1196813,6.00104762 29.0311293,5.73568254 29.0311293,5.41006349 L29.0311293,0.114730159 L30.067926,0.114730159 L30.067926,4.98085714 C30.067926,5.14387302 30.0720257,5.26974603 30.0802249,5.35971429 C30.0884242,5.44968254 30.1093323,5.51530159 30.1429493,5.55739683 C30.1765663,5.59949206 30.2265818,5.62631746 30.2934058,5.63704762 C30.3610497,5.64901587 30.4528814,5.65438095 30.5701309,5.65438095 Z" id="Shape"></path>
                                        <path d="M33.3878075,5.65438095 L33.2959758,6.51320635 L32.5518927,6.51320635 C32.3678192,6.51320635 32.2058838,6.48390476 32.0664963,6.42488889 C31.9271089,6.36546032 31.8102694,6.28704762 31.7151579,6.1892381 C31.6208664,6.09101587 31.5495328,5.97422222 31.5019771,5.83968254 C31.4548313,5.70473016 31.4306435,5.56152381 31.4306435,5.41006349 L31.4306435,3.07831746 L30.8370169,3.07831746 L30.9292586,2.21949206 L31.4310535,2.21949206 L31.4310535,1.29339683 L32.4678502,1.18403175 L32.4678502,2.21949206 L33.3878075,2.21949206 L33.3878075,3.07831746 L32.4678502,3.07831746 L32.4678502,4.98085714 C32.4678502,5.14387302 32.4735897,5.26974603 32.4846587,5.35971429 C32.4957277,5.44968254 32.5223753,5.51695238 32.5641916,5.56152381 C32.6064178,5.60650794 32.6687322,5.63333333 32.7523646,5.6415873 C32.8359971,5.64984127 32.9528366,5.65396825 33.1032931,5.65396825 L33.3878075,5.65396825 L33.3878075,5.65438095 Z" id="Shape"></path>
                                        <polygon id="Shape" points="38.0548278 2.21949206 35.4368032 8.46650794 34.4000065 8.46650794 35.328573 6.15168254 33.5890994 2.21990476 34.7427357 2.21990476 35.8131494 4.93092063 36.9003716 2.21990476 38.0548278 2.21990476"></polygon>
                                    </g>
                                    <g id="Group-3" transform="translate(103.830427, 14.331890)" fill="#979797">
                                        <g id="cursor">
                                            <g id="Group-2" transform="translate(0.000000, 0.136833)">
                                                <g id="Line" transform="translate(1.229889, 11.968254)">
                                                    <path d="M1.27621523,1.09901587 C0.960953583,1.09901587 0.596906321,1.04907937 0.184893373,0.949206349 L0.015578599,0.907936508 L0.0971612625,0.567047619 L0.266476036,0.60831746 C1.31639162,0.862952381 1.81531675,0.723047619 2.05063559,0.56168254 C2.2539773,0.421777778 2.27939502,0.250095238 2.28062491,0.243492063 L2.30358284,0.0726349206 L2.64385224,0.109777778 L2.62704376,0.281047619 C2.62376405,0.314063492 2.58604744,0.609555556 2.26340646,0.840253968 C2.02193817,1.01234921 1.69150789,1.09901587 1.27621523,1.09901587 Z" id="Shape"></path>
                                                </g>
                                                <g id="Line-Copy-5">
                                                    <path d="M2.81152716,12.3153333 L2.4630585,12.3153333 L2.4630585,1.07260317 L2.4630585,1.07342857 C2.46100869,1.07342857 2.43026145,0.909174603 2.23429907,0.774222222 C1.9993902,0.612857143 1.49923518,0.472952381 0.450549483,0.727587302 L0.281234709,0.768857143 L0.199652046,0.427968254 L0.36896682,0.386698413 C1.32295103,0.155174603 2.02234813,0.192730159 2.44665998,0.496063492 C2.76930096,0.726761905 2.80742753,1.02225397 2.81070724,1.05526984 L2.81152716,12.3153333 Z" id="Shape"></path>
                                                </g>
                                            </g>
                                            <g id="Group-2-Copy" transform="translate(4.141514, 7.392647) scale(-1, 1) translate(-4.141514, -7.392647) translate(1.885021, 0.136833)">
                                                <g id="Line_1_" transform="translate(0.000000, 11.968254)">
                                                    <path d="M1.46028868,1.09901587 C1.87517137,1.09901587 2.20519169,1.01234921 2.44665998,0.83984127 C2.76930096,0.609142857 2.80701757,0.313650794 2.81029728,0.280634921 L2.82751573,0.106063492 L2.48068692,0.0713968254 L2.46387843,0.243492063 C2.46182861,0.25752381 2.43354116,0.424253968 2.23429907,0.56168254 C1.99898024,0.723873016 1.49882521,0.862952381 0.450549483,0.60831746 L0.281234709,0.567047619 L0.199652046,0.907936508 L0.36896682,0.949206349 C0.780569805,1.04907937 1.14502703,1.09901587 1.46028868,1.09901587 Z" id="Shape"></path>
                                                </g>
                                                <g id="Line-Copy-5_1_" transform="translate(1.229889, 0.000000)">
                                                    <path d="M2.27939502,12.3153333 L2.62786368,12.3153333 L2.62786368,1.07260317 C2.62376405,1.02225397 2.58563748,0.726349206 2.26299649,0.496063492 C1.83786472,0.19231746 1.13805766,0.155174603 0.185303336,0.386698413 L0.0159885622,0.427968254 L0.0975712256,0.768857143 L0.266885999,0.727587302 C1.31393184,0.473777778 1.81490679,0.612857143 2.05063559,0.774634921 C2.2539773,0.914539683 2.27939502,1.08580952 2.28021494,1.0932381 L2.27939502,12.3153333 Z" id="Shape"></path>
                                                </g>
                                            </g>
                                        </g>
                                    </g>
                                    <g id="Group-5" transform="translate(3.773597, 3.159555)">
                                        <g id="Oval-3-Copy-3" fill="#36D488">
                                            <ellipse id="Oval" cx="2.3273607" cy="1.93060317" rx="1.91780754" ry="1.93060317"></ellipse>
                                        </g>
                                        <g id="Oval-3-Copy-4" transform="translate(6.969373, 0.000000)" fill="#F8E81C">
                                            <ellipse id="Oval" cx="1.98217175" cy="1.93060317" rx="1.91780754" ry="1.93060317"></ellipse>
                                        </g>
                                        <g id="Oval-3-Copy-5" transform="translate(13.528783, 0.000000)" fill="#E76D6B">
                                            <ellipse id="Oval" cx="2.04653596" cy="1.93060317" rx="1.91780754" ry="1.93060317"></ellipse>
                                        </g>
                                    </g>
                                </g>
                                <g id="Group-5-Copy" transform="translate(60.674544, 0.000000)">
                                    <g id="Mask" stroke="#E3E3E3" stroke-width="3.61">
                                        <ellipse id="path-1_1_" cx="38.7415161" cy="39" rx="38.7415161" ry="39"></ellipse>
                                    </g>
                                    <g id="Group-4-Copy-2-Clipped">
                                        <mask id="mask-2" fill="white">
                                            <use xlink:href="#path-1"></use>
                                        </mask>
                                        <g id="path-1"></g>
                                        <g id="Group-4-Copy-2" mask="url(#mask-2)">
                                            <g transform="translate(-94.701484, 11.142857)" id="Group">
                                                <g>
                                                    <g id="Rectangle-6-Copy-5_1_" transform="translate(8.199263, 17.746032)" fill="#FFFFFF">
                                                        <path d="M3.72779477,0.198095238 L147.22883,0.198095238 C149.148687,0.198095238 150.704907,1.76469841 150.704907,3.69736508 L150.704907,15.1414921 C150.704907,17.0745714 149.148687,18.6407619 147.22883,18.6407619 L3.72779477,18.6407619 C1.80793742,18.6407619 0.251717364,17.0741587 0.251717364,15.1414921 L0.251717364,3.69736508 C0.251717364,1.76469841 1.80793742,0.198095238 3.72779477,0.198095238 Z" id="Shape"></path>
                                                    </g>
                                                    <g id="Group_1_">
                                                        <g id="Rectangle-6_1_" transform="translate(0.000000, 14.444444)" fill="#E6E6E6">
                                                            <rect id="Rectangle-path" x="0.173414405" y="0.0107301587" width="189.136491" height="58.7199683"></rect>
                                                        </g>
                                                        <g id="Rectangle-6-Copy-2_1_" fill="#C8C8C8">
                                                            <path d="M2.65615114,0 L186.827169,0 C188.198496,0 189.309906,1.1188254 189.309906,2.49930159 L189.309906,11.955873 C189.309906,13.3363492 188.198496,14.4551746 186.827169,14.4551746 L2.65615114,14.4551746 C1.28482446,14.4551746 0.173414405,13.3363492 0.173414405,11.955873 L0.173414405,2.49930159 C0.173414405,1.1188254 1.28523442,0 2.65615114,0 Z" id="Shape"></path>
                                                        </g>
                                                        <g id="Rectangle-6-Copy-3_1_" transform="translate(0.000000, 42.507937)" fill="#FFFFFF">
                                                            <rect id="Rectangle-path" x="0.0467357971" y="0.359047619" width="189.136901" height="33.7975238"></rect>
                                                        </g>
                                                        <g id="Rectangle-6-Copy_1_" transform="translate(0.000000, 20.222222)" fill="#FFFFFF">
                                                            <rect id="Rectangle-path" x="0.173414405" y="0.214603175" width="180.260789" height="18.4426667"></rect>
                                                        </g>
                                                    </g>
                                                    <g id="Rectangle-5_1_" opacity="0.602" transform="translate(115.609603, 22.698413)" fill="#D9EFFE">
                                                        <path d="M1.21267095,0.230698413 L56.3953485,0.230698413 C56.9438791,0.230698413 57.3886891,0.678063492 57.3886891,1.23025397 L57.3886891,11.193619 C57.3886891,11.7458095 56.9438791,12.1931746 56.3953485,12.1931746 L1.21267095,12.1931746 C0.664140275,12.1931746 0.219330276,11.7458095 0.219330276,11.193619 L0.219330276,1.23025397 C0.219330276,0.678063492 0.664140275,0.230698413 1.21267095,0.230698413 Z" id="Shape"></path>
                                                    </g>
                                                    <g transform="translate(2.049816, 23.936508)" id="Shape" fill="#5B6D79">
                                                        <path d="M37.6579835,7.94898413 L37.5267953,9.17304762 L36.9905635,9.17304762 C36.3469214,9.17304762 35.9021114,8.94111111 35.6557236,8.4768254 C35.2424807,8.94069841 34.6345054,9.17304762 33.8322075,9.17304762 C33.5858197,9.17304762 33.3574702,9.13053968 33.1471591,9.0467619 C32.9364381,8.96298413 32.7540045,8.84288889 32.5990384,8.68688889 C32.4440724,8.53088889 32.3227233,8.34311111 32.2354011,8.12314286 C32.148079,7.9031746 32.1042129,7.65307937 32.1042129,7.37368254 C32.1042129,6.96552381 32.2235122,6.62587302 32.4617008,6.35349206 C32.7002993,6.08193651 32.9901433,5.86361905 33.3316426,5.69977778 C33.6731418,5.53593651 34.0367791,5.41749206 34.4221445,5.34609524 C34.8075098,5.27387302 35.1510589,5.23425397 35.4532018,5.226 C35.4372132,4.86612698 35.3498911,4.61231746 35.1908254,4.46415873 C35.0317597,4.3164127 34.7620039,4.24212698 34.3803282,4.24212698 C33.9113304,4.24212698 33.3673093,4.394 32.747855,4.69774603 L32.6166668,3.48606349 C33.3554204,3.13403175 34.0785954,2.95822222 34.7857818,2.95822222 C36.2235225,2.95822222 36.9430078,3.76174603 36.9430078,5.36961905 L36.9430078,6.98946032 C36.9430078,7.20530159 36.9487473,7.37739683 36.9606362,7.50533333 C36.9725251,7.63368254 36.996303,7.73149206 37.0319698,7.7991746 C37.0676366,7.86726984 37.1213417,7.90936508 37.1930853,7.92546032 C37.2648288,7.94155556 37.3558407,7.94939683 37.4669407,7.94939683 L37.6579835,7.94939683 L37.6579835,7.94898413 Z M35.4650907,7.60107937 L35.4650907,6.23380952 C35.2346914,6.24990476 35.0104416,6.28168254 34.7915213,6.32955556 C34.572601,6.37742857 34.3803282,6.4475873 34.2134732,6.53961905 C34.0466183,6.63165079 33.9113304,6.74142857 33.8084297,6.86936508 C33.705119,6.99771429 33.6534636,7.14546032 33.6534636,7.31342857 C33.6534636,7.79298413 33.9195297,8.0331746 34.4520718,8.0331746 C34.8255482,8.0331746 35.1629479,7.88914286 35.4650907,7.60107937 Z"></path>
                                                        <path d="M41.3521613,9.17304762 C40.8200291,9.17304762 40.3551309,9.03685714 39.9578767,8.76530159 L39.9578767,11.9562857 L38.4803695,11.9562857 L38.4803695,3.05396825 L39.7676538,3.05396825 L39.886953,3.40187302 C40.3239737,3.10596825 40.8126498,2.95822222 41.3529812,2.95822222 C41.8055805,2.95822222 42.2130839,3.03828571 42.5742614,3.198 C42.9358489,3.35853968 43.2416814,3.57809524 43.4921688,3.85831746 C43.7422463,4.13812698 43.934929,4.46828571 44.0702169,4.84755556 C44.2055047,5.22765079 44.2727386,5.63333333 44.2727386,6.06542857 C44.2727386,6.49711111 44.2071445,6.90114286 44.0763663,7.27711111 C43.9451781,7.65307937 43.7565951,7.9832381 43.5102072,8.2667619 C43.2638194,8.55069841 42.9579869,8.77314286 42.5927097,8.93244444 C42.2262027,9.09257143 41.8129598,9.17304762 41.3521613,9.17304762 Z M41.2513103,4.18187302 C40.7925616,4.18187302 40.4502424,4.34984127 40.2247627,4.68619048 C39.9992829,5.02171429 39.8865431,5.48187302 39.8865431,6.06584127 C39.8865431,6.64980952 39.9992829,7.10955556 40.2247627,7.44549206 C40.4502424,7.78142857 40.7925616,7.94939683 41.2513103,7.94939683 C41.7260477,7.94939683 42.0941946,7.77977778 42.3549311,7.43971429 C42.6160776,7.10006349 42.7468559,6.64196825 42.7468559,6.06625397 C42.7468559,5.49053968 42.6164876,5.03244444 42.3549311,4.69238095 C42.0937846,4.35190476 41.7260477,4.18187302 41.2513103,4.18187302 Z"></path>
                                                        <path d="M48.1690283,9.17304762 C47.6368961,9.17304762 47.1719979,9.03685714 46.7747436,8.76530159 L46.7747436,11.9562857 L45.2972365,11.9562857 L45.2972365,3.05396825 L46.5845207,3.05396825 L46.70382,3.40187302 C47.1408407,3.10596825 47.6295168,2.95822222 48.1698482,2.95822222 C48.6224475,2.95822222 49.0299508,3.03828571 49.3911284,3.198 C49.7527158,3.35853968 50.0585483,3.57809524 50.3090358,3.85831746 C50.5591133,4.13812698 50.751796,4.46828571 50.8870838,4.84755556 C51.0223717,5.22765079 51.0896056,5.63333333 51.0896056,6.06542857 C51.0896056,6.49711111 51.0240115,6.90114286 50.8932333,7.27711111 C50.7620451,7.65307937 50.573462,7.9832381 50.3270742,8.2667619 C50.0806863,8.55069841 49.7748538,8.77314286 49.4095767,8.93244444 C49.0430697,9.09257143 48.6298268,9.17304762 48.1690283,9.17304762 Z M48.0681773,4.18187302 C47.6094286,4.18187302 47.2671094,4.34984127 47.0416296,4.68619048 C46.8161499,5.02171429 46.7034101,5.48187302 46.7034101,6.06584127 C46.7034101,6.64980952 46.8161499,7.10955556 47.0416296,7.44549206 C47.2671094,7.78142857 47.6094286,7.94939683 48.0681773,7.94939683 C48.5429146,7.94939683 48.9110615,7.77977778 49.1717981,7.43971429 C49.4329446,7.10006349 49.5637228,6.64196825 49.5637228,6.06625397 C49.5637228,5.49053968 49.4333546,5.03244444 49.1717981,4.69238095 C48.9106516,4.35190476 48.5429146,4.18187302 48.0681773,4.18187302 Z"></path>
                                                        <path d="M54.3065863,7.94898413 L54.1753981,9.17304762 L53.6391663,9.17304762 C53.1304021,9.17304762 52.7491364,9.02695238 52.4949592,8.7347619 C52.2403721,8.44298413 52.1136935,8.06495238 52.1136935,7.60107937 L52.1136935,0.0548888889 L53.5912006,0.0548888889 L53.5912006,6.98946032 C53.5912006,7.22139683 53.5973501,7.40133333 53.609239,7.52968254 C53.621128,7.65761905 53.6510553,7.75130159 53.698611,7.81155556 C53.7461667,7.87180952 53.8179103,7.90936508 53.9130217,7.92546032 C54.0081332,7.94155556 54.1397313,7.94898413 54.3065863,7.94898413 Z"></path>
                                                        <path d="M56.7253688,2.14231746 L55.2478617,2.14231746 L55.2478617,0.654952381 L56.7253688,0.654952381 L56.7253688,2.14231746 Z M56.7253688,9.05295238 L55.2478617,9.05295238 L55.2478617,3.05396825 L56.7253688,3.05396825 L56.7253688,9.05295238 Z"></path>
                                                        <path d="M60.6462562,9.17304762 C60.1854576,9.17304762 59.7763144,9.09298413 59.4188266,8.93285714 C59.0613387,8.77314286 58.7591959,8.5552381 58.513218,8.27914286 C58.2672401,8.00304762 58.0782471,7.67536508 57.9470589,7.29526984 C57.8158707,6.9155873 57.7506866,6.50536508 57.7506866,6.06584127 C57.7506866,5.62631746 57.8162807,5.21815873 57.9470589,4.84219048 C58.0778372,4.46622222 58.2668302,4.13812698 58.513218,3.85831746 C58.7596059,3.57809524 59.0613387,3.35853968 59.4188266,3.198 C59.7763144,3.03828571 60.1854576,2.95822222 60.6462562,2.95822222 C61.3772205,2.95822222 61.9728969,3.10596825 62.4336955,3.40187302 L62.3033272,4.67380952 C61.8126013,4.34571429 61.3021972,4.18187302 60.7717049,4.18187302 C60.2965576,4.18187302 59.9284108,4.35190476 59.6676742,4.69155556 C59.4065277,5.03161905 59.2757494,5.48971429 59.2757494,6.06542857 C59.2757494,6.64114286 59.4061177,7.0992381 59.6676742,7.43888889 C59.9288207,7.77895238 60.2969676,7.94857143 60.7717049,7.94857143 C61.3017872,7.94857143 61.8126013,7.78514286 62.3033272,7.45704762 L62.4336955,8.72857143 C61.9728969,9.02488889 61.3772205,9.17304762 60.6462562,9.17304762 Z"></path>
                                                        <path d="M68.5597746,7.94898413 L68.4285864,9.17304762 L67.8923546,9.17304762 C67.2487125,9.17304762 66.8039025,8.94111111 66.5575146,8.4768254 C66.1442718,8.94069841 65.5362964,9.17304762 64.7339986,9.17304762 C64.4876108,9.17304762 64.2592613,9.13053968 64.0489502,9.0467619 C63.8382292,8.96298413 63.6557956,8.84288889 63.5008295,8.68688889 C63.3458634,8.53088889 63.2245143,8.34311111 63.1371922,8.12314286 C63.04987,7.9031746 63.006004,7.65307937 63.006004,7.37368254 C63.006004,6.96552381 63.1253033,6.62587302 63.3634918,6.35349206 C63.6020904,6.08193651 63.8919343,5.86361905 64.2334336,5.69977778 C64.5749329,5.53593651 64.9385702,5.41749206 65.3239355,5.34609524 C65.7093009,5.27387302 66.05285,5.23425397 66.3549928,5.226 C66.3390043,4.86612698 66.2516821,4.61231746 66.0926164,4.46415873 C65.9335507,4.3164127 65.663795,4.24212698 65.2821193,4.24212698 C64.8131215,4.24212698 64.2691004,4.394 63.6496461,4.69774603 L63.5184579,3.48606349 C64.2572115,3.13403175 64.9803864,2.95822222 65.6875728,2.95822222 C67.1253136,2.95822222 67.8447988,3.76174603 67.8447988,5.36961905 L67.8447988,6.98946032 C67.8447988,7.20530159 67.8505383,7.37739683 67.8624273,7.50533333 C67.8743162,7.63368254 67.8980941,7.73149206 67.9337608,7.7991746 C67.9694276,7.86726984 68.0231328,7.90936508 68.0948764,7.92546032 C68.1666199,7.94155556 68.2576317,7.94939683 68.3687317,7.94939683 L68.5597746,7.94939683 L68.5597746,7.94898413 Z M66.3668818,7.60107937 L66.3668818,6.23380952 C66.1364825,6.24990476 65.9122326,6.28168254 65.6933123,6.32955556 C65.474392,6.37742857 65.2821193,6.4475873 65.1152643,6.53961905 C64.9484093,6.63165079 64.8131215,6.74142857 64.7102207,6.86936508 C64.60691,6.99771429 64.5552547,7.14546032 64.5552547,7.31342857 C64.5552547,7.79298413 64.8213207,8.0331746 65.3538629,8.0331746 C65.7273393,8.0331746 66.0647389,7.88914286 66.3668818,7.60107937 Z"></path>
                                                        <path d="M72.4208073,7.94898413 L72.2896191,9.17304762 L71.2290445,9.17304762 C70.9670781,9.17304762 70.7362688,9.13053968 70.5378467,9.0467619 C70.3394245,8.96298413 70.1721596,8.85073016 70.0372817,8.7112381 C69.9019938,8.57133333 69.800733,8.40542857 69.733499,8.21311111 C69.6658551,8.02120635 69.6322381,7.81733333 69.6322381,7.60149206 L69.6322381,4.27803175 L68.7860742,4.27803175 L68.9168524,3.05438095 L69.6322381,3.05438095 L69.6322381,1.73498413 L71.1097452,1.57898413 L71.1097452,3.05396825 L72.4208073,3.05396825 L72.4208073,4.27761905 L71.1097452,4.27761905 L71.1097452,6.98904762 C71.1097452,7.22098413 71.1175345,7.40092063 71.1335231,7.52926984 C71.1495117,7.65720635 71.1872283,7.75295238 71.2466729,7.81692063 C71.3061176,7.88088889 71.3954895,7.91885714 71.5147888,7.9308254 C71.6340881,7.94238095 71.8009431,7.94857143 72.0153538,7.94857143 L72.4208073,7.94857143 L72.4208073,7.94898413 Z"></path>
                                                        <path d="M74.8637776,2.14231746 L73.3862705,2.14231746 L73.3862705,0.654952381 L74.8637776,0.654952381 L74.8637776,2.14231746 Z M74.8637776,9.05295238 L73.3862705,9.05295238 L73.3862705,3.05396825 L74.8637776,3.05396825 L74.8637776,9.05295238 Z"></path>
                                                        <path d="M81.0964472,8.27295238 C80.5561157,8.87260317 79.8251515,9.17304762 78.9035544,9.17304762 C78.4427558,9.17304762 78.0278731,9.09298413 77.6580864,8.93285714 C77.2887096,8.77314286 76.973038,8.5531746 76.7106616,8.27295238 C76.4482852,7.99314286 76.2457634,7.66504762 76.1030962,7.28907937 C75.9600191,6.91352381 75.8886855,6.50536508 75.8886855,6.06542857 C75.8886855,5.63333333 75.9600191,5.22765079 76.1030962,4.84755556 C76.2461733,4.46787302 76.4486951,4.13771429 76.7106616,3.85831746 C76.973038,3.57809524 77.2887096,3.35853968 77.6580864,3.198 C78.0274631,3.03828571 78.4427558,2.95822222 78.9035544,2.95822222 C79.3643529,2.95822222 79.7816954,3.04034921 80.1551718,3.20419048 C80.5286482,3.36803175 80.8463696,3.59047619 81.1083361,3.86987302 C81.3707125,4.15009524 81.5711845,4.47819048 81.710162,4.85374603 C81.8491395,5.22971429 81.9188332,5.63374603 81.9188332,6.06584127 C81.9188332,6.93746032 81.6449778,7.67330159 81.0964472,8.27295238 Z M79.9915965,4.69774603 C79.7312699,4.35396825 79.3688625,4.18187302 78.9039643,4.18187302 C78.4312768,4.18187302 78.0643598,4.35396825 77.8044432,4.69774603 C77.5445266,5.04193651 77.4145683,5.49755556 77.4145683,6.06542857 C77.4145683,6.63330159 77.5445266,7.08892063 77.8044432,7.43269841 C78.0643598,7.77688889 78.4312768,7.94857143 78.9039643,7.94857143 C79.3770618,7.94857143 79.7435688,7.7727619 80.0038954,7.42114286 C80.263812,7.06911111 80.3937703,6.61720635 80.3937703,6.06542857 C80.3933604,5.49755556 80.2593024,5.04193651 79.9915965,4.69774603 Z"></path>
                                                        <path d="M88.1994684,9.05295238 L86.7219613,9.05295238 L86.7219613,5.82565079 C86.7219613,5.26644444 86.6284897,4.85250794 86.4419564,4.58425397 C86.2550133,4.3164127 85.9549202,4.18187302 85.5420874,4.18187302 C85.0890781,4.18187302 84.7156017,4.35396825 84.4216581,4.69774603 L84.4216581,9.05295238 L82.944151,9.05295238 L82.944151,3.05396825 L84.3265467,3.05396825 L84.3503245,3.41384127 C84.7713567,3.11009524 85.2083774,2.95822222 85.6613866,2.95822222 C87.3537145,2.95822222 88.1998784,3.91403175 88.1998784,5.8252381 L88.1998784,9.05295238 L88.1994684,9.05295238 Z"></path>
                                                        <polygon points="90.9523708 9.05295238 89.4748637 9.05295238 89.4748637 7.49336508 90.9523708 7.49336508"></polygon>
                                                        <path d="M97.5429382,9.05295238 L96.065431,9.05295238 L96.065431,5.82565079 C96.065431,5.26644444 95.9719594,4.85250794 95.7854262,4.58425397 C95.598483,4.3164127 95.29839,4.18187302 94.8855571,4.18187302 C94.4325479,4.18187302 94.0590715,4.35396825 93.7651279,4.69774603 L93.7651279,9.05295238 L92.2876208,9.05295238 L92.2876208,3.05396825 L93.6700164,3.05396825 L93.6937943,3.41384127 C94.1148264,3.11009524 94.5518471,2.95822222 95.0048564,2.95822222 C96.6971842,2.95822222 97.5433481,3.91403175 97.5433481,5.8252381 L97.5433481,9.05295238 L97.5429382,9.05295238 Z"></path>
                                                        <path d="M103.894497,6.37742857 L100.033464,6.37742857 C100.112997,6.89742857 100.322078,7.28907937 100.661118,7.55320635 C100.999747,7.81733333 101.384293,7.94898413 101.815164,7.94898413 C101.950452,7.94898413 102.097629,7.93742857 102.257104,7.91307937 C102.41658,7.88914286 102.578105,7.85488889 102.741681,7.81114286 C102.905256,7.76739683 103.066371,7.71539683 103.226257,7.65514286 C103.385733,7.59488889 103.52881,7.52926984 103.656308,7.45746032 L103.728462,8.71742857 C103.148364,9.0211746 102.485044,9.17304762 101.738091,9.17304762 C101.214158,9.17304762 100.7509,9.09298413 100.349956,8.93285714 C99.9486018,8.77314286 99.6112022,8.5552381 99.3369368,8.27914286 C99.0626715,8.00304762 98.8560501,7.67536508 98.7170726,7.29526984 C98.5780951,6.9155873 98.5084013,6.50536508 98.5084013,6.06584127 C98.5084013,5.63374603 98.5739954,5.23012698 98.7047737,4.85374603 C98.8359619,4.47819048 99.0245449,4.14803175 99.2709328,3.86409524 C99.5173206,3.58015873 99.8174136,3.35853968 100.170802,3.1984127 C100.52419,3.03869841 100.923494,2.95863492 101.368304,2.95863492 C101.741781,2.95863492 102.089019,3.02053968 102.41084,3.14434921 C102.732661,3.26857143 103.010616,3.44479365 103.245115,3.67219048 C103.479614,3.9004127 103.662458,4.17444444 103.793646,4.49387302 C103.924424,4.81371429 103.990018,5.17028571 103.990018,5.56193651 C103.989608,5.78561905 103.957631,6.0575873 103.894497,6.37742857 Z M100.069131,5.36961905 L102.488323,5.36961905 C102.488323,5.05761905 102.400181,4.78193651 102.224717,4.54174603 C102.048433,4.30196825 101.777037,4.18187302 101.41012,4.18187302 C101.042793,4.18187302 100.74721,4.29 100.52378,4.50584127 C100.30035,4.72168254 100.148664,5.00974603 100.069131,5.36961905 Z"></path>
                                                        <path d="M108.137205,7.94898413 L108.006017,9.17304762 L106.945443,9.17304762 C106.683066,9.17304762 106.452667,9.13053968 106.253835,9.0467619 C106.055003,8.96298413 105.888558,8.85073016 105.75327,8.7112381 C105.617982,8.57174603 105.517131,8.40542857 105.449897,8.21311111 C105.381843,8.02120635 105.348226,7.81733333 105.348226,7.60149206 L105.348226,4.27803175 L104.502472,4.27803175 L104.633251,3.05438095 L105.348226,3.05438095 L105.348226,1.73498413 L106.826143,1.57898413 L106.826143,3.05396825 L108.136795,3.05396825 L108.136795,4.27761905 L106.826143,4.27761905 L106.826143,6.98904762 C106.826143,7.22098413 106.833933,7.40092063 106.849921,7.52926984 C106.8655,7.65720635 106.903626,7.75295238 106.963071,7.81692063 C107.022516,7.88088889 107.111888,7.91885714 107.231187,7.9308254 C107.350486,7.94238095 107.516931,7.94857143 107.731752,7.94857143 L108.137205,7.94857143 L108.137205,7.94898413 Z"></path>
                                                        <polygon points="114.584696 0.654952381 110.234987 10.0723175 108.63777 10.0723175 112.987889 0.654952381"></polygon>
                                                    </g>
                                                    <g transform="translate(116.839493, 23.936508)" id="Shape" fill="#4A90E2">
                                                        <path d="M5.78744955,7.94898413 L5.65667131,9.17304762 L5.12043953,9.17304762 C4.47679741,9.17304762 4.03157745,8.94111111 3.78559957,8.4768254 C3.37235673,8.94069841 2.7643814,9.17304762 1.96208355,9.17304762 C1.71569571,9.17304762 1.48734625,9.13053968 1.27703516,9.0467619 C1.06590415,8.96298413 0.883470551,8.84288889 0.728504487,8.68688889 C0.573538423,8.53088889 0.452189335,8.34311111 0.364867188,8.12314286 C0.277545041,7.9031746 0.233678986,7.65307937 0.233678986,7.37368254 C0.233678986,6.96552381 0.352978257,6.62587302 0.591576801,6.35349206 C0.829765381,6.08193651 1.11960932,5.86361905 1.46110861,5.69977778 C1.80301786,5.53593651 2.16665516,5.41749206 2.55161054,5.34609524 C2.93697588,5.27387302 3.28052499,5.23425397 3.58307778,5.226 C3.56708922,4.86612698 3.47935711,4.61231746 3.32029141,4.46415873 C3.16122572,4.316 2.89146998,4.24212698 2.5097943,4.24212698 C2.04079648,4.24212698 1.4967754,4.394 0.877321104,4.69774603 L0.746132902,3.48606349 C1.48529643,3.13403175 2.20806143,2.95822222 2.91524784,2.95822222 C4.35339851,2.95822222 5.07247384,3.76174603 5.07247384,5.36961905 L5.07247384,6.98946032 C5.07247384,7.20530159 5.07862329,7.37739683 5.09051222,7.50533333 C5.10199119,7.63368254 5.12617901,7.73149206 5.16225577,7.7991746 C5.19792256,7.86726984 5.25162773,7.90936508 5.32337128,7.92546032 C5.39470486,7.94155556 5.48571668,7.94939683 5.59722665,7.94939683 L5.78744955,7.94939683 L5.78744955,7.94898413 Z M3.59496671,7.60107937 L3.59496671,6.23380952 C3.36456743,6.24990476 3.1403176,6.28168254 2.92139728,6.32955556 C2.70247697,6.37742857 2.51020426,6.4475873 2.34375923,6.53961905 C2.17690424,6.63165079 2.0416164,6.74142857 1.93871566,6.86936508 C1.83540495,6.99771429 1.78333963,7.14546032 1.78333963,7.31342857 C1.78333963,7.79298413 2.0494057,8.0331746 2.58194781,8.0331746 C2.95542422,8.0331746 3.29241392,7.88914286 3.59496671,7.60107937 Z"></path>
                                                        <path d="M9.47014837,9.17304762 C8.93760626,9.17304762 8.44934017,9.0211746 8.00453017,8.71742857 L7.98075231,9.05295238 L6.59794666,9.05295238 L6.59794666,0.0548888889 L8.07586375,0.0548888889 L8.07586375,3.354 C8.46491877,3.08987302 8.929407,2.95822222 9.4697384,2.95822222 C9.92274767,2.95822222 10.3298411,3.03828571 10.6914285,3.198 C11.0526061,3.35853968 11.3584386,3.57809524 11.608926,3.85831746 C11.8585936,4.13812698 12.0516862,4.46828571 12.186974,4.84755556 C12.321442,5.22765079 12.3894958,5.63333333 12.3894958,6.06542857 C12.3894958,6.49711111 12.3239017,6.90114286 12.1927135,7.27711111 C12.0615253,7.65307937 11.8729423,7.9832381 11.6265544,8.2667619 C11.3801666,8.55069841 11.0739241,8.77314286 10.709057,8.93244444 C10.3437798,9.09257143 9.93094693,9.17304762 9.47014837,9.17304762 Z M9.36929744,4.18187302 C8.91054869,4.18187302 8.56822948,4.34984127 8.34274975,4.68619048 C8.11686007,5.02171429 8.00453017,5.48187302 8.00453017,6.06584127 C8.00453017,6.64980952 8.11686007,7.10955556 8.34274975,7.44549206 C8.56822948,7.78142857 8.91054869,7.94939683 9.36929744,7.94939683 C9.84403475,7.94939683 10.2121816,7.77977778 10.4729182,7.43971429 C10.7340647,7.10006349 10.864433,6.64196825 10.864433,6.06625397 C10.864433,5.49053968 10.7340647,5.03244444 10.4729182,4.69238095 C10.2117717,4.35190476 9.84403475,4.18187302 9.36929744,4.18187302 Z"></path>
                                                        <path d="M15.9533054,9.17304762 C15.4920968,9.17304762 15.0829536,9.09298413 14.7258757,8.93285714 C14.3679779,8.77314286 14.066245,8.5552381 13.8198572,8.27914286 C13.5734694,8.00304762 13.3844764,7.67536508 13.2536981,7.29526984 C13.1229199,6.9155873 13.0573258,6.50536508 13.0573258,6.06584127 C13.0573258,5.62631746 13.1229199,5.21815873 13.2536981,4.84219048 C13.3844764,4.46622222 13.5734694,4.13812698 13.8198572,3.85831746 C14.066245,3.57809524 14.3679779,3.35853968 14.7258757,3.198 C15.0829536,3.03828571 15.4920968,2.95822222 15.9533054,2.95822222 C16.6838597,2.95822222 17.279946,3.10596825 17.7403346,3.40187302 L17.6099664,4.67380952 C17.1192405,4.34571429 16.6092464,4.18187302 16.0787541,4.18187302 C15.6036068,4.18187302 15.2354599,4.35190476 14.9747234,4.69155556 C14.7131669,5.03161905 14.5827986,5.48971429 14.5827986,6.06542857 C14.5827986,6.64114286 14.7131669,7.0992381 14.9747234,7.43888889 C15.2358699,7.77895238 15.6036068,7.94857143 16.0787541,7.94857143 C16.6092464,7.94857143 17.1192405,7.78514286 17.6099664,7.45704762 L17.7403346,8.72857143 C17.279946,9.02488889 16.6838597,9.17304762 15.9533054,9.17304762 Z"></path>
                                                        <polygon points="24.7244666 10.6125397 18.0506767 10.6125397 18.0506767 9.48504762 24.7244666 9.48504762"></polygon>
                                                        <path d="M28.80073,2.95822222 L28.5145757,4.36180952 L27.966455,4.36180952 C27.7278565,4.36180952 27.5093461,4.41793651 27.310514,4.52977778 C27.1116819,4.64161905 26.9690147,4.78565079 26.8812826,4.96146032 L26.8812826,9.05253968 L25.4037755,9.05253968 L25.4037755,3.05396825 L26.7857612,3.05396825 L26.821838,3.68993651 C27.2822266,3.20212698 27.810669,2.95822222 28.4067554,2.95822222 L28.80073,2.95822222 Z"></path>
                                                        <path d="M34.4012364,6.37742857 L30.5406135,6.37742857 C30.6197364,6.89742857 30.8288176,7.28907937 31.1678571,7.55320635 C31.5064867,7.81733333 31.8914421,7.94898413 32.3214934,7.94898413 C32.4567812,7.94898413 32.604368,7.93742857 32.7638436,7.91307937 C32.9233193,7.88914286 33.0844348,7.85488889 33.24842,7.81114286 C33.4115854,7.76739683 33.5727009,7.71539683 33.7325865,7.65514286 C33.8920622,7.59488889 34.0351393,7.52926984 34.1630478,7.45746032 L34.2347913,8.71742857 C33.6546935,9.0211746 32.9913731,9.17304762 32.2448303,9.17304762 C31.7204874,9.17304762 31.2576391,9.09298413 30.8562852,8.93285714 C30.4549312,8.77314286 30.1171216,8.5552381 29.8432663,8.27914286 C29.5690009,8.00304762 29.3623795,7.67536508 29.223402,7.29526984 C29.0840145,6.9155873 29.0147308,6.50536508 29.0147308,6.06584127 C29.0147308,5.63374603 29.0799149,5.23012698 29.2111031,4.85374603 C29.3422913,4.47819048 29.5308743,4.14803175 29.7772622,3.86409524 C30.02365,3.58015873 30.3233331,3.35853968 30.6771313,3.1984127 C31.0301095,3.03869841 31.4298236,2.95863492 31.8746336,2.95863492 C32.24811,2.95863492 32.5957587,3.02053968 32.9175798,3.14434921 C33.2394008,3.26857143 33.5173558,3.44479365 33.7518548,3.67219048 C33.9859437,3.9004127 34.1691972,4.17444444 34.2999755,4.49387302 C34.4307537,4.81371429 34.4963478,5.17028571 34.4963478,5.56193651 C34.4967578,5.78561905 34.4647806,6.0575873 34.4012364,6.37742857 Z M30.5758704,5.36961905 L32.9954728,5.36961905 C32.9954728,5.05761905 32.9073307,4.78193651 32.7318665,4.54174603 C32.5555823,4.30196825 32.2841867,4.18187302 31.9172697,4.18187302 C31.5503527,4.18187302 31.2547693,4.29 31.0313394,4.50584127 C30.8070896,4.72168254 30.6558132,5.00974603 30.5758704,5.36961905 Z"></path>
                                                        <path d="M40.6228369,7.94898413 L40.4920586,9.17304762 L39.9554169,9.17304762 C39.3117748,9.17304762 38.8669648,8.94111111 38.6205769,8.4768254 C38.2073341,8.94069841 37.5997687,9.17304762 36.7974709,9.17304762 C36.5506731,9.17304762 36.3227336,9.13053968 36.1120125,9.0467619 C35.9012915,8.96298413 35.7188579,8.84288889 35.5634818,8.68688889 C35.4089257,8.53088889 35.2871667,8.34311111 35.1998445,8.12314286 C35.1125224,7.9031746 35.0690663,7.65307937 35.0690663,7.37368254 C35.0690663,6.96552381 35.1883656,6.62587302 35.4265542,6.35349206 C35.6651527,6.08193651 35.9549966,5.86361905 36.2964959,5.69977778 C36.6379952,5.53593651 37.0016325,5.41749206 37.3869979,5.34609524 C37.7723632,5.27387302 38.1159123,5.23425397 38.4180551,5.226 C38.4020666,4.86612698 38.3147444,4.61231746 38.1556787,4.46415873 C37.996613,4.316 37.7268573,4.24212698 37.3447717,4.24212698 C36.8761838,4.24212698 36.3317528,4.394 35.7122985,4.69774603 L35.5815202,3.48606349 C36.3202738,3.13403175 37.0430388,2.95822222 37.7506352,2.95822222 C39.1883759,2.95822222 39.9078612,3.76174603 39.9078612,5.36961905 L39.9078612,6.98946032 C39.9078612,7.20530159 39.9140106,7.37739683 39.9258995,7.50533333 C39.9373785,7.63368254 39.9615663,7.73149206 39.9972331,7.7991746 C40.0333099,7.86726984 40.0870151,7.90936508 40.1583486,7.92546032 C40.2296822,7.94155556 40.320694,7.94939683 40.432204,7.94939683 L40.6228369,7.94939683 L40.6228369,7.94898413 Z M38.4299441,7.60107937 L38.4299441,6.23380952 C38.1995448,6.24990476 37.975295,6.28168254 37.7563746,6.32955556 C37.5374543,6.37742857 37.3447717,6.4475873 37.1783266,6.53961905 C37.0118816,6.63165079 36.8765938,6.74142857 36.7732831,6.86936508 C36.6699723,6.99771429 36.618317,7.14546032 36.618317,7.31342857 C36.618317,7.79298413 36.8843831,8.0331746 37.4169252,8.0331746 C37.7904016,8.0331746 38.1278012,7.88914286 38.4299441,7.60107937 Z"></path>
                                                        <path d="M43.6377057,7.94898413 L43.5065175,9.17304762 L42.9702858,9.17304762 C42.4615215,9.17304762 42.0802558,9.02695238 41.8260787,8.7347619 C41.5719015,8.44298413 41.444403,8.06495238 41.444403,7.60107937 L41.444403,0.0548888889 L42.9223201,0.0548888889 L42.9223201,6.98946032 C42.9223201,7.22139683 42.9280596,7.40133333 42.9399485,7.52968254 C42.9518374,7.65761905 42.9817647,7.75130159 43.0297304,7.81155556 C43.0768762,7.87180952 43.1490297,7.90936508 43.2441411,7.92546032 C43.3392526,7.94155556 43.4708508,7.94898413 43.6377057,7.94898413 Z"></path>
                                                        <path d="M47.6541146,7.94898413 L47.5229264,9.17304762 L46.4619418,9.17304762 C46.1999753,9.17304762 45.969576,9.13053968 45.7707439,9.0467619 C45.5719118,8.96298413 45.4050568,8.85073016 45.2701789,8.7112381 C45.1348911,8.57133333 45.0336302,8.40542857 44.9663963,8.21311111 C44.8987523,8.02120635 44.8651354,7.81733333 44.8651354,7.60149206 L44.8651354,4.27803175 L44.0189715,4.27803175 L44.1501597,3.05438095 L44.8651354,3.05438095 L44.8651354,1.73498413 L46.3426425,1.57898413 L46.3426425,3.05396825 L47.6537046,3.05396825 L47.6537046,4.27761905 L46.3426425,4.27761905 L46.3426425,6.98904762 C46.3426425,7.22098413 46.3504318,7.40092063 46.3664204,7.52926984 C46.3824089,7.65720635 46.4201255,7.75295238 46.4799801,7.81692063 C46.5394248,7.88088889 46.6287968,7.91885714 46.7476861,7.9308254 C46.8669853,7.94238095 47.0338403,7.94857143 47.248661,7.94857143 L47.6541146,7.94857143 L47.6541146,7.94898413 Z"></path>
                                                        <polygon points="54.3041265 3.05396825 50.573462 11.955873 49.0959549 11.955873 50.4193159 8.6567619 47.9402688 3.05396825 49.5850409 3.05396825 51.1105137 6.9168254 52.6597644 3.05396825"></polygon>
                                                    </g>
                                                    <g id="Group-3_1_" transform="translate(148.229111, 20.522367)" fill="#979797">
                                                        <g id="cursor_1_">
                                                            <g id="Group-2_1_" transform="translate(0.000000, 0.194283)">
                                                                <g id="Line_2_" transform="translate(0.000000, 16.507937)">
                                                                    <path d="M1.90714849,1.70774603 C1.4578289,1.70774603 0.938815574,1.6371746 0.351748368,1.49520635 L0.110280083,1.43660317 L0.226299649,0.950444444 L0.467767935,1.00904762 C1.96413337,1.37057143 2.67828915,1.17165079 3.01404895,0.940952381 C3.30225303,0.742857143 3.33832979,0.501015873 3.33955968,0.490285714 L3.37276669,0.247619048 L3.85775308,0.300857143 L3.83315529,0.544761905 C3.82823573,0.591396825 3.77453056,1.01028571 3.31701171,1.33755556 C2.97223271,1.58434921 2.50036515,1.70774603 1.90714849,1.70774603 Z" id="Shape"></path>
                                                                </g>
                                                                <g id="Line-Copy-5_2_">
                                                                    <path d="M3.83438518,17.3135238 L3.33791983,17.3135238 L3.33791983,1.34993651 L3.33791983,1.3507619 C3.33505009,1.3507619 3.29159399,1.1192381 3.01404895,0.928984127 C2.67828915,0.697873016 1.96454333,0.499365079 0.467767935,0.860888889 L0.226299649,0.919079365 L0.110280083,0.432920635 L0.351748368,0.374730159 C1.71323593,0.0458095238 2.71026627,0.0982222222 3.31701171,0.531968254 C3.77494053,0.859238095 3.82823573,1.27812698 3.83315529,1.3247619 L3.83438518,17.3135238 Z" id="Shape"></path>
                                                                </g>
                                                            </g>
                                                            <g id="Group-2-Copy_1_" transform="translate(5.192867, 9.717539) scale(-1, 1) translate(-5.192867, -9.717539) translate(2.936374, 0.194283)">
                                                                <g id="Line_3_" transform="translate(0.000000, 16.507937)">
                                                                    <path d="M2.17936401,1.70774603 C2.77258067,1.70774603 3.24444823,1.58434921 3.58881726,1.33796825 C4.04633612,1.01069841 4.10045125,0.591396825 4.10496085,0.545174603 L4.1299686,0.29631746 L3.63596302,0.246380952 L3.61136524,0.492349206 C3.60808553,0.513396825 3.56708922,0.747809524 3.28585451,0.941365079 C2.95050467,1.17247619 2.23593893,1.37098413 0.739983455,1.00946032 L0.498515169,0.950857143 L0.382495603,1.43701587 L0.623963888,1.49561905 C1.21062113,1.6371746 1.73004442,1.70774603 2.17936401,1.70774603 Z" id="Shape"></path>
                                                                </g>
                                                                <g id="Line-Copy-5_3_">
                                                                    <path d="M3.50436486,17.3135238 L4.00083021,17.3135238 L4.00083021,1.34993651 C3.99509073,1.27812698 3.94138556,0.859650794 3.4838667,0.531968254 C2.87794119,0.099047619 1.88091085,0.0458095238 0.519013326,0.374730159 L0.277545041,0.432920635 L0.393564607,0.919079365 L0.635032893,0.860888889 C2.14984667,0.495238095 2.86359248,0.702 3.19607258,0.939714286 C3.47033792,1.13574603 3.50518479,1.37222222 3.50559475,1.37469841 L3.50436486,17.3135238 Z" id="Shape"></path>
                                                                </g>
                                                            </g>
                                                        </g>
                                                    </g>
                                                </g>
                                            </g>
                                        </g>
                                    </g>
                                </g>
                                <g id="Mask-Copy" transform="translate(60.674544, 0.000000)" stroke="#E2E2E2" stroke-width="3.61">
                                    <ellipse id="path-3_1_" cx="38.7415161" cy="39" rx="38.7415161" ry="39"></ellipse>
                                </g>
                            </g>
                        </g>
                    </g>
                </g>
            </g>
        </g>
    </g>
</svg>