<?xml version="1.0" encoding="UTF-8" standalone="no"?>
<svg width="137px" height="108px" viewBox="0 0 137 108" version="1.1" xmlns="http://www.w3.org/2000/svg" xmlns:xlink="http://www.w3.org/1999/xlink">
    <!-- Generator: sketchtool 41 (35326) - http://www.bohemiancoding.com/sketch -->
    <title>C49891D3-5BAA-4F64-ACE5-A00E1BE9033C</title>
    <desc>Created with sketchtool.</desc>
    <defs>
        <polygon id="path-1" points="12.9835165 34.5575144 65.695301 27.2226148 75.9527508 99.4864152 23.2409663 106.821315"></polygon>
        <mask id="mask-2" maskContentUnits="userSpaceOnUse" maskUnits="objectBoundingBox" x="0" y="0" width="62.9692343" height="79.5987" fill="white">
            <use xlink:href="#path-1"></use>
        </mask>
        <rect id="path-3" x="29.497388" y="26.6137396" width="53.2298134" height="72.9739781"></rect>
        <mask id="mask-4" maskContentUnits="userSpaceOnUse" maskUnits="objectBoundingBox" x="0" y="0" width="53.2298134" height="72.9739781" fill="white">
            <use xlink:href="#path-3"></use>
        </mask>
    </defs>
    <g id="final-emails-/-responsive" stroke="none" stroke-width="1" fill="none" fill-rule="evenodd">
        <g id="Welcome-Email--Desktop-" transform="translate(-52.000000, -365.000000)">
            <g id="illustration-1" transform="translate(49.000000, 366.000000)">
                <rect id="Rectangle-3-Copy-7" fill-opacity="0.376556839" fill="#D8D8D8" opacity="0.657182836" x="87.5042359" y="44.8572341" width="45.0406113" height="25.0003444" rx="2.7664"></rect>
                <use id="Rectangle-Copy-6" stroke="#979797" mask="url(#mask-2)" stroke-width="2.7664" fill="#FFFFFF" xlink:href="#path-1"></use>
                <polyline id="Rectangle-Copy-7" fill="#D9E5FE" points="23.3554864 30.4801176 76.5528737 28.6407945 79.1250649 101.570319 25.9276777 103.409642"></polyline>
                <use id="Rectangle-Copy-8" stroke="#979797" mask="url(#mask-4)" stroke-width="2.7664" fill="#FFFFFF" xlink:href="#path-3"></use>
                <path d="M77.2677333,79.6167395 C77.2677333,79.6167395 99.110937,95.5771578 111.193476,70.5332634" id="Path-2-Copy-4" stroke="#B0B5BC" stroke-width="1.3832" stroke-linecap="round" stroke-linejoin="round" stroke-dasharray="2.766399943828583,2.07480001449585"></path>
                <rect id="Rectangle-3-Copy-4" stroke="#B0B5BC" stroke-width="1.3832" stroke-linecap="round" stroke-linejoin="round" stroke-dasharray="2.766399943828583,2.07480001449585" fill="#FFFFFF" x="93.6461375" y="40.1274392" width="45.0406113" height="25.0003444" rx="2.7664"></rect>
                <rect id="Rectangle-2-Copy-9" fill="#D8D8D8" x="101.152906" y="49.587029" width="34.1216753" height="2.70273993" rx="1.35136997"></rect>
                <rect id="Rectangle-2-Copy-14" fill="#D8D8D8" x="101.152906" y="54.9925088" width="34.1216753" height="2.70273993" rx="1.35136997"></rect>
                <rect id="Rectangle-2-Copy-15" fill="#B0B5BC" x="98.423172" y="44.1815491" width="14.9185527" height="2.70273993" rx="1.35136997"></rect>
                <rect id="Rectangle-2-Copy-20" fill="#D8D8D8" x="39.7338906" y="69.1818935" width="34.1216753" height="2.70273993" rx="1.35136997"></rect>
                <rect id="Rectangle-2-Copy-21" fill="#D8D8D8" x="39.7338906" y="82.0199081" width="34.1216753" height="2.70273993" rx="1.35136997"></rect>
                <rect id="Rectangle-2-Copy-22" fill="#B0B5BC" x="39.051457" y="63.7764136" width="9.55406907" height="2.70273993" rx="1.35136997"></rect>
                <rect id="Rectangle-2-Copy-23" fill="#B0B5BC" x="39.051457" y="76.6144283" width="9.55406907" height="2.70273993" rx="1.35136997"></rect>
                <path d="M9.02438282,8.35700739 C14.6344661,-3.16394944 51.5751782,-7.23182313 55.6884395,29.8060465" id="Path-2-Copy-5" stroke="#B0B5BC" stroke-width="1.3832" stroke-linecap="round" stroke-linejoin="round" stroke-dasharray="2.766399943828583,2.07480001449585"></path>
                <rect id="Rectangle-2-Copy-3" fill="#D8D8D8" x="41.7811911" y="41.4788092" width="34.1216753" height="2.70273993" rx="1.35136997"></rect>
                <rect id="Rectangle-2-Copy-24" fill="#D8D8D8" x="41.7811911" y="46.884289" width="34.1216753" height="2.70273993" rx="1.35136997"></rect>
                <g id="Group-Copy-5" transform="translate(85.456935, 36.749014)" stroke="#36D488" stroke-width="2.0748" stroke-linecap="round">
                    <path d="M4.43581778,0 L4.43581778,9.45958976" id="Line-Copy-2" transform="translate(4.435818, 4.729795) scale(-1, 1) translate(-4.435818, -4.729795) "></path>
                    <path d="M3.28626015e-14,4.72979488 L8.87163557,4.72979488" id="Line-Copy-3" transform="translate(4.435818, 4.729795) scale(-1, 1) translate(-4.435818, -4.729795) "></path>
                </g>
                <g id="Group-Copy-6" transform="translate(7.915243, 16.105293) rotate(45.000000) translate(-7.915243, -16.105293) translate(2.455775, 10.650498)" stroke="#E76D6B" stroke-width="2.0748" stroke-linecap="round">
                    <path d="M5.33313008,-7.30865826e-14 L5.33313008,10.6571298" id="Line-Copy-2" transform="translate(5.333130, 5.328565) scale(-1, 1) translate(-5.333130, -5.328565) "></path>
                    <path d="M-5.22346361e-14,5.3285649 L10.6662602,5.3285649" id="Line-Copy-3" transform="translate(5.333130, 5.328565) scale(-1, 1) translate(-5.333130, -5.328565) "></path>
                </g>
                <rect id="Rectangle-2-Copy-25" fill="#B0B5BC" x="39.051457" y="36.0733293" width="14.9185527" height="2.70273993" rx="1.35136997"></rect>
                <rect id="Rectangle-3-Copy-8" stroke="#B0B5BC" stroke-width="1.3832" stroke-linecap="round" stroke-linejoin="round" stroke-dasharray="2.766399943828583,2.07480001449585" x="34.2744225" y="32.0192194" width="45.0406113" height="25.0003444" rx="2.7664"></rect>
            </g>
        </g>
    </g>
</svg>