<?xml version="1.0" encoding="UTF-8" standalone="no"?>
<svg width="84px" height="84px" viewBox="0 0 84 84" version="1.1" xmlns="http://www.w3.org/2000/svg" xmlns:xlink="http://www.w3.org/1999/xlink">
    <!-- Generator: sketchtool 41 (35326) - http://www.bohemiancoding.com/sketch -->
    <title>7C5E5391-93C0-460C-A399-3C56EDD3556A</title>
    <desc>Created with sketchtool.</desc>
    <defs></defs>
    <g id="final-emails-/-responsive" stroke="none" stroke-width="1" fill="none" fill-rule="evenodd">
        <g id="Welcome-Email--Desktop-" transform="translate(-256.000000, -35.000000)">
            <g id="rentapplicationLOGO" transform="translate(256.000000, 35.000000)">
                <g id="Layer_1">
                    <g id="Group">
                        <path d="M41.9228571,83.7185714 C64.0254286,84.3517143 83.5245714,65.2485714 83.8154286,42.5602857 C84.1111429,19.4694286 64.7257143,0.810857143 43.3331429,0.181142857 C19.4197143,-0.522857143 0.373142857,19.596 0.150857143,41.4334286 C-0.0905714286,65.1694286 20.1077143,84.3585714 41.9228571,83.7185714 Z" id="Shape" fill="#FFFFFF"></path>
                        <path d="M41.9228571,83.7185714 C20.1077143,84.3585714 -0.0908571429,65.1694286 0.150571429,41.4334286 C0.372857143,19.596 19.4194286,-0.522857143 43.3328571,0.181142857 C64.7254286,0.810857143 84.1111429,19.4694286 83.8151429,42.5602857 C83.5248571,65.2485714 64.0257143,84.3514286 41.9228571,83.7185714 Z M41.9894286,81.5562857 C63.7642857,81.5565714 81.2168571,64.0962857 81.4802857,42.5477143 C81.754,20.1397143 63.3288571,2.53257143 42.1408571,2.47028571 C20.6934286,2.40714286 2.84171429,19.994 2.49885714,41.3931429 C2.15028571,63.1754286 19.8971429,81.8148571 41.9894286,81.5562857 Z" id="Shape" fill="#08AEEB"></path>
                        <path d="M41.9894286,81.5562857 C19.8971429,81.8145714 2.15028571,63.1754286 2.49914286,41.3931429 C2.842,19.994 20.6937143,2.40714286 42.1411429,2.47028571 C63.3288571,2.53285714 81.7542857,20.14 81.4805714,42.5477143 C81.2168571,64.0962857 63.7642857,81.5565714 41.9894286,81.5562857 Z M21.4751429,44.5862857 C21.522,44.312 21.3637143,44.2677143 21.1445714,44.2922857 L12.8525714,44.2922857 C21.9597143,37.3891429 31.0925714,30.7897143 40.2434286,24.2154286 C41.4182857,23.3714286 43,23.4622857 44.1248571,24.2568571 C47.6582857,26.752 51.194,29.2445714 54.7425714,31.7185714 C55.0674286,31.9448571 55.3888571,32.4762857 55.8302857,32.1962857 C56.2162857,31.9514286 56.0274286,31.3945714 55.9765714,31.0065714 C55.8382857,29.9511429 56.184,29.5894286 57.2817143,29.6722857 C58.702,29.7797143 60.1391429,29.7491429 61.564,29.6794286 C62.408,29.638 62.5828571,29.9522857 62.5697143,30.7282857 C62.5345714,32.7737143 62.5854286,34.8202857 62.6014286,36.8662857 C62.5694286,37.0611429 62.65,37.1862857 62.8354286,37.2471429 C66.0171429,39.5051429 69.1988571,41.7637143 72.3808571,44.0217143 C72.3591429,44.1137143 72.3371429,44.2062857 72.3154286,44.2982857 L62.8531429,44.2982857 C62.6388571,44.2614286 62.5802857,44.3731429 62.6017143,44.5614286 L62.6017143,54.2951429 C62.5742857,54.4908571 62.6251429,54.6414286 62.8351429,54.7005714 C66.3117143,56.1065714 69.8117143,57.4794286 72.9965714,59.4831429 C73.9742857,60.0982857 74.3017143,59.852 74.7491429,58.9468571 C78.5894286,51.1734286 79.7194286,43.0682857 78.0428571,34.534 C73.8397143,13.1368571 50.9728571,-0.0628571429 30.3545714,7.056 C13.5045714,12.8737143 3.43,28.8605714 5.46371429,46.6225714 C5.97142857,51.0571429 7.32314286,55.2522857 9.40171429,59.2071429 C9.63057143,59.6425714 9.738,60.2242857 10.5051429,59.7471429 C13.8651429,57.658 17.5131429,56.164 21.1694286,54.6934286 C21.386,54.6348571 21.5191429,54.518 21.4657143,54.2705714 C21.6171429,51.0422857 21.6034286,47.8145714 21.4751429,44.5862857 Z M42.1077143,78.9771429 C54.4028571,78.5931429 64.4257143,73.59 71.9031429,63.5765714 C72.5528571,62.7065714 72.5951429,62.3082857 71.5408571,61.7174286 C64.6997143,57.8848571 57.418,55.4517143 49.6337143,54.4728571 C36.4102857,52.8094286 24.0182857,55.2848571 12.384,61.7568571 C11.3551429,62.3291429 11.4351429,62.7077143 12.0465714,63.5285714 C19.5111429,73.5488571 29.5191429,78.5851429 42.1077143,78.9771429 Z" id="Shape" fill="#FFFFFF"></path>
                        <path d="M62.5697143,36.9006696 L62.5697143,29.6794286 L56.086635,29.6794286 L56.086635,32.5201777 C56.086635,32.5201777 55.0674286,31.9448571 54.7425714,31.7185714 C51.194,29.2445714 47.6582857,26.752 44.1248571,24.2568571 C43,23.4625714 41.4182857,23.3714286 40.2434286,24.2154286 C31.0925714,30.7897143 21.9594286,37.3888571 12.8525714,44.2922857 L21.1445714,44.2922857 C21.2548571,44.3902857 21.3648571,44.4885714 21.4751429,44.5862857 C21.6034286,47.8145714 21.6171429,51.0425714 21.4662857,54.2705714 C21.3674286,54.4114286 21.2688571,54.5525714 21.17,54.6934286 C17.5137143,56.164 13.8657143,57.658 10.5057143,59.7471429 C9.73857143,60.2242857 9.63085714,59.6428571 9.40228571,59.2071429 C7.32371429,55.2522857 5.972,51.0571429 5.46428571,46.6225714 C3.43057143,28.8605714 13.5054286,12.8737143 30.3551429,7.056 C50.9734286,-0.0628571429 73.8402857,13.1368571 78.0434286,34.534 C79.72,43.0682857 78.59,51.1734286 74.7497143,58.9468571 C74.3025714,59.852 73.9748571,60.0982857 72.9971429,59.4831429 C69.8122857,57.4791429 66.3122857,56.1065714 62.8357143,54.7005714 C62.758,54.5654286 62.68,54.4302857 62.6022857,54.2951429 L62.6022857,44.5614286 C62.6862857,44.4734286 62.77,44.386 62.8537143,44.2982857 L72.316,44.2982857 C72.3377143,44.2062857 72.3597143,44.1137143 72.3814286,44.0217143 C69.1994286,41.7637143 62.5697143,36.9006696 62.5697143,36.9006696 Z" id="Shape" fill="#333333"></path>
                        <path d="M42.1077143,78.9771429 C29.5191429,78.5851429 19.5111429,73.5488571 12.0471429,63.5285714 C11.4357143,62.7077143 11.3557143,62.3291429 12.3845714,61.7568571 C24.0185714,55.2848571 36.4108571,52.8094286 49.6342857,54.4728571 C57.4185714,55.452 64.7,57.8848571 71.5414286,61.7174286 C72.5954286,62.308 72.5534286,62.7065714 71.9037143,63.5765714 C64.4257143,73.5897143 54.4028571,78.5931429 42.1077143,78.9771429 Z" id="Shape" fill="#01ACEB"></path>
                    </g>
                    <path d="M41.162,44.5208571 C40.9371429,44.622 37.5925714,44.5202857 36.0637143,44.5208571 C36.0611429,44.3102857 36.0651429,40.8731429 36.0637143,39.44 C36.15,39.3508571 39.636,39.44 41.162,39.44 C41.2494286,39.53 41.164,43.088 41.162,44.5208571 Z" id="Shape" fill="#333333"></path>
                    <path d="M47.162,44.5208571 C46.9371429,44.622 43.5925714,44.5202857 42.0637143,44.5208571 C42.0611429,44.3102857 42.0651429,40.8731429 42.0637143,39.44 C42.15,39.3508571 45.636,39.44 47.162,39.44 C47.2494286,39.53 47.164,43.088 47.162,44.5208571 Z" id="Shape" fill="#333333"></path>
                    <path d="M41.162,50.5208571 C40.9371429,50.622 37.5925714,50.5202857 36.0637143,50.5208571 C36.0611429,50.3102857 36.0651429,46.8731429 36.0637143,45.44 C36.15,45.3508571 39.636,45.44 41.162,45.44 C41.2494286,45.53 41.164,49.088 41.162,50.5208571 Z" id="Shape" fill="#333333"></path>
                    <path d="M47.162,50.5208571 C46.9371429,50.622 43.5925714,50.5202857 42.0637143,50.5208571 C42.0611429,50.3102857 42.0651429,46.8731429 42.0637143,45.44 C42.15,45.3508571 45.636,45.44 47.162,45.44 C47.2494286,45.53 47.164,49.088 47.162,50.5208571 Z" id="Shape" fill="#333333"></path>
                </g>
            </g>
        </g>
    </g>
</svg>