<svg width="30" height="30" viewBox="0 0 30 30" xmlns="http://www.w3.org/2000/svg"><title>E17BB738-C921-4A32-A926-AD5FEB0AF1EB</title><g fill="none" fill-rule="evenodd"><path d="M14.972 29.9c7.894.226 14.858-6.597 14.962-14.7C30.04 6.953 23.116.29 15.476.065 6.936-.187.133 6.999.054 14.798c-.086 8.477 7.127 15.33 14.918 15.101z" fill="#FFF"/><path d="M14.972 29.9C7.182 30.127-.032 23.274.054 14.797.134 6.998 6.936-.187 15.476.065 23.116.29 30.04 6.953 29.934 15.2c-.104 8.103-7.068 14.926-14.962 14.7zm.024-.773c7.777 0 14.01-6.235 14.104-13.931C29.198 7.193 22.617.904 15.05.882 7.39.86 1.015 7.141.892 14.783c-.124 7.78 6.214 14.437 14.104 14.344z" fill="#08AEEB"/><path d="M14.996 29.127C7.106 29.22.768 22.563.893 14.783 1.015 7.141 7.39.86 15.05.883c7.567.022 14.148 6.31 14.05 14.313-.094 7.696-6.327 13.931-14.104 13.931zM7.67 15.924c.016-.098-.04-.114-.118-.105H4.59c3.253-2.466 6.514-4.823 9.783-7.17.42-.302.984-.27 1.386.014a770.96 770.96 0 0 0 3.792 2.665c.116.08.23.27.388.17.138-.087.07-.286.053-.424-.05-.377.074-.506.466-.477.507.039 1.02.028 1.53.003.3-.015.363.097.358.374-.012.73.006 1.462.012 2.193-.012.07.017.114.083.136l3.41 2.419-.024.099h-3.38c-.076-.013-.097.027-.09.094v3.476c-.009.07.01.124.084.145 1.242.502 2.492.992 3.63 1.708.348.22.465.132.625-.192 1.372-2.776 1.775-5.67 1.176-8.718-1.5-7.642-9.667-12.356-17.031-9.814-6.018 2.078-9.616 7.787-8.89 14.13a12.713 12.713 0 0 0 1.407 4.495c.081.156.12.364.394.193 1.2-.746 2.503-1.28 3.809-1.805.077-.02.124-.062.105-.15.054-1.154.05-2.306.004-3.46zm7.368 12.282c4.392-.137 7.971-1.924 10.642-5.5.232-.31.247-.453-.13-.664a21.29 21.29 0 0 0-7.824-2.587c-4.722-.594-9.148.29-13.303 2.601-.368.204-.339.34-.12.633 2.665 3.578 6.24 5.377 10.735 5.517z" fill="#FFF"/><path d="M22.346 13.179v-2.58h-2.315v1.015s-.364-.205-.48-.286a770.96 770.96 0 0 1-3.792-2.665c-.402-.284-.967-.316-1.386-.015-3.269 2.348-6.53 4.705-9.783 7.17h2.962l.118.106a40.28 40.28 0 0 1-.003 3.458l-.106.151c-1.306.526-2.609 1.06-3.809 1.805-.274.17-.312-.037-.394-.193a12.713 12.713 0 0 1-1.406-4.494c-.727-6.344 2.871-12.053 8.89-14.131 7.363-2.542 15.53 2.172 17.03 9.814.6 3.048.196 5.942-1.176 8.718-.16.324-.276.412-.626.192-1.137-.716-2.387-1.206-3.629-1.708l-.083-.145v-3.476l.09-.094h3.38l.023-.099a396.132 396.132 0 0 1-3.505-2.543z" fill="#333"/><path d="M15.038 28.206c-4.495-.14-8.07-1.939-10.735-5.517-.219-.293-.247-.429.12-.633 4.155-2.311 8.58-3.195 13.304-2.601 2.78.35 5.38 1.218 7.824 2.587.376.21.36.353.129.664-2.67 3.576-6.25 5.363-10.642 5.5z" fill="#01ACEB"/><path d="M14.7 15.9c-.08.036-1.274 0-1.82 0v-1.814c.03-.032 1.276 0 1.82 0 .032.032.001 1.303 0 1.814zm2.144 0c-.08.036-1.275 0-1.821 0v-1.814c.03-.032 1.276 0 1.82 0 .032.032.001 1.303 0 1.814zM14.7 18.043c-.08.036-1.274 0-1.82 0V16.23c.03-.032 1.276 0 1.82 0 .032.032.001 1.302 0 1.814zm2.144 0c-.08.036-1.275 0-1.821 0V16.23c.03-.032 1.276 0 1.82 0 .032.032.001 1.302 0 1.814z" fill="#333"/></g></svg>